<svg width="380" height="380" viewBox="0 0 380 380" fill="none" xmlns="http://www.w3.org/2000/svg">
<g clip-path="url(#clip0_56_165)">
<path d="M325.776 309.749C316.327 319.475 307.876 325.192 301.399 329.508C238.28 371.598 166.125 359.467 143.817 355.32C107.826 348.631 77.4446 343.911 51.344 320.361C-7.97109 266.839 -5.08527 155.197 40.2417 86.0388C45.6165 77.8386 90.8663 10.8455 163.172 1.40522C164.94 1.174 166.259 1.04325 167.415 0.920755C178.607 -0.262892 247.927 -6.50456 304.448 40.7877C312.539 47.5565 325.559 59.7673 337.633 78.3905C381.782 146.486 381.923 251.952 325.776 309.749Z" fill="url(#paint0_linear_56_165)"/>
<path d="M291.548 131.41L323.743 123.924C323.743 123.924 345.27 121.997 348.182 141.1C351.094 160.204 350.249 273.414 349.338 296.764C349.037 304.459 349.075 311.569 349.729 317.769C351.095 330.684 341.006 341.964 328.004 342.188L268.066 343.225L291.548 131.41Z" fill="url(#paint1_linear_56_165)"/>
<path d="M274.419 352.421C274.419 352.421 280.851 262.355 326.597 207.453C327.194 206.738 328.227 206.918 328.543 207.798C333.526 221.705 361.545 311.144 274.419 352.421Z" fill="#BDD0FB"/>
<path d="M324.622 233.59C324.238 238.845 323.476 244.03 322.594 249.206C321.68 254.373 320.608 259.515 319.345 264.613C316.845 274.827 313.658 284.861 309.806 294.647C307.853 299.53 305.782 304.372 303.466 309.099C302.343 311.478 301.089 313.796 299.883 316.137C298.606 318.44 297.36 320.759 295.978 323.002C290.622 332.065 284.35 340.607 277.191 348.294C277.091 348.398 276.955 348.46 276.811 348.468C276.666 348.475 276.525 348.428 276.414 348.334C276.304 348.241 276.233 348.11 276.217 347.966C276.2 347.823 276.239 347.679 276.325 347.563V347.556C282.695 339.345 288.409 330.648 293.414 321.543C294.697 319.29 295.838 316.96 297.061 314.675C298.196 312.344 299.382 310.04 300.44 307.673C300.971 306.489 301.543 305.333 302.061 304.138L303.628 300.579C304.142 299.388 304.624 298.186 305.123 296.99C305.622 295.793 306.101 294.588 306.567 293.378C307.532 290.971 308.433 288.537 309.34 286.107C310.206 283.661 311.071 281.215 311.881 278.749C313.55 273.833 315.033 268.854 316.464 263.86C317.865 258.857 319.169 253.821 320.339 248.753C321.531 243.692 322.591 238.582 323.489 233.476V233.459C323.514 233.316 323.593 233.187 323.71 233.1C323.826 233.014 323.972 232.975 324.117 232.993C324.261 233.01 324.394 233.083 324.486 233.196C324.578 233.308 324.624 233.452 324.613 233.597L324.622 233.59Z" fill="url(#paint2_linear_56_165)"/>
<path d="M280.089 342.57C280.089 342.57 327.248 263.351 378.554 262.109C378.767 262.104 378.979 262.148 379.172 262.236C379.366 262.324 379.538 262.455 379.674 262.619C379.81 262.783 379.907 262.975 379.958 263.181C380.009 263.388 380.012 263.603 379.968 263.812C377.784 274.166 362.509 328.367 280.089 342.57Z" fill="#91B3FA"/>
<path d="M367.688 274.671C364.58 277.931 361.379 281.067 358.133 284.168C356.493 285.701 354.854 287.233 353.198 288.748C351.541 290.263 349.875 291.766 348.188 293.246C341.455 299.183 334.521 304.885 327.388 310.35C323.853 313.117 320.19 315.717 316.577 318.38L311.046 322.231C310.123 322.871 309.206 323.518 308.272 324.142L305.451 325.982C297.995 330.993 290.205 335.486 282.359 339.849C282.228 339.923 282.074 339.943 281.929 339.903C281.784 339.864 281.66 339.768 281.586 339.638C281.511 339.508 281.491 339.353 281.531 339.208C281.57 339.063 281.666 338.94 281.797 338.866L281.81 338.856L287.598 335.465L290.493 333.771C291.449 333.191 292.389 332.583 293.337 331.991L299.025 328.435C300.899 327.217 302.746 325.957 304.614 324.727L307.406 322.869L310.154 320.942L315.648 317.088C319.239 314.422 322.877 311.822 326.39 309.053C329.951 306.346 333.433 303.538 336.917 300.735L342.076 296.449L347.175 292.086C348.873 290.629 350.534 289.132 352.217 287.658C353.899 286.184 355.533 284.658 357.178 283.148C360.462 280.12 363.727 277.046 366.862 273.881L366.87 273.873C366.975 273.765 367.118 273.703 367.269 273.701C367.419 273.699 367.564 273.756 367.672 273.861C367.78 273.965 367.841 274.109 367.844 274.259C367.846 274.409 367.788 274.554 367.684 274.661L367.688 274.671Z" fill="#BDD0FB"/>
<path d="M226.095 132.963C226.095 132.963 284.718 136.181 323.743 123.924C323.743 123.924 297.801 122.148 297.801 181.968C297.801 227.702 304.592 314.996 298.662 331.566C292.732 348.135 270.559 370.413 238.774 351.268C206.988 332.123 226.095 132.963 226.095 132.963Z" fill="#7D97F4"/>
<path d="M210.51 43.2816C210.51 43.2816 275.191 50.3229 283.523 39.3741C283.523 39.3741 276.895 19.6692 257.211 20.9794C237.527 22.2897 210.51 43.2816 210.51 43.2816Z" fill="url(#paint3_linear_56_165)"/>
<path d="M0.137841 65.4516C5.78821 128.756 17.6292 262.655 22.7834 327.881C23.3389 334.915 26.4144 341.512 31.4461 346.464C36.4777 351.416 43.1283 354.391 50.1781 354.842C102.098 358.17 218.944 364.628 263.79 358.62C258.756 356.142 254.524 352.296 251.58 347.525C248.635 342.753 247.098 337.249 247.143 331.644L249.523 38.9585C249.607 28.6154 259.923 21.1845 269.619 24.8139C275.729 27.1 280.355 31.9709 283.529 39.3742C279.295 27.0532 272.642 18.041 257.216 20.9795C257.216 20.9795 106.397 22.4852 33.2104 27.0175C13.3184 28.2493 -1.6248 45.631 0.137841 65.4516Z" fill="#91B3FA"/>
<path opacity="0.53" d="M37.451 35.3952L240.108 27.6038C231.749 89.4012 235.284 215.253 238.466 339.28C238.559 342.885 239.651 346.394 241.622 349.415C243.593 352.437 246.365 354.853 249.629 356.393C249.629 356.393 114.459 357.949 56.3797 353.835C49.7411 353.361 43.4623 350.642 38.5788 346.125C33.6953 341.609 30.4986 335.566 29.5156 328.992C21.5459 275.853 2.46966 138.578 6.44008 65.9003C7.34827 49.2576 20.7741 36.0366 37.451 35.3952Z" fill="url(#paint4_linear_56_165)"/>
<path d="M34.7692 131.253L37.1341 153.922C37.3432 155.933 38.2715 157.8 39.7485 159.182C41.2254 160.563 43.1519 161.367 45.1741 161.444L58.3905 161.951C59.5214 161.994 60.6495 161.809 61.7071 161.407C62.7647 161.004 63.7301 160.393 64.5454 159.609C65.3606 158.825 66.009 157.885 66.4516 156.844C66.8941 155.804 67.1218 154.685 67.121 153.555V129.1C67.1211 127.94 66.8803 126.792 66.4137 125.729C65.9471 124.666 65.2649 123.711 64.4102 122.925C63.5555 122.138 62.5468 121.537 61.4478 121.16C60.3489 120.783 59.1835 120.637 58.0253 120.732L42.4468 122.013C41.3305 122.104 40.2437 122.417 39.2502 122.933C38.2567 123.45 37.3765 124.159 36.6613 125.02C35.9461 125.88 35.4102 126.875 35.0853 127.945C34.7604 129.016 34.6529 130.14 34.7692 131.253Z" fill="url(#paint5_linear_56_165)"/>
<path d="M81.2441 124.265C103.241 123.577 187.682 120.841 209.005 120.147C209.642 120.127 210.278 120.234 210.873 120.464C211.469 120.694 212.011 121.041 212.47 121.484C212.928 121.928 213.293 122.459 213.541 123.046C213.79 123.633 213.918 124.264 213.918 124.901C213.916 126.131 213.438 127.313 212.583 128.199C211.728 129.084 210.562 129.605 209.331 129.651L81.6535 134.388C80.4667 134.432 79.3064 134.032 78.3998 133.265C77.4932 132.499 76.9059 131.423 76.7528 130.247L76.6729 129.63C76.5871 128.972 76.6403 128.303 76.8289 127.667C77.0175 127.031 77.3374 126.441 77.768 125.936C78.1985 125.43 78.7303 125.021 79.329 124.733C79.9277 124.445 80.5801 124.286 81.2441 124.265Z" fill="url(#paint6_linear_56_165)"/>
<path d="M79.8618 154.149C80.0458 154.458 80.3087 154.712 80.6236 154.886C80.9385 155.059 81.294 155.146 81.6534 155.136L169.324 153.234C169.853 153.223 170.357 153.005 170.727 152.627C171.098 152.249 171.305 151.741 171.306 151.212V145.44C171.306 145.168 171.251 144.899 171.144 144.648C171.037 144.398 170.881 144.172 170.685 143.983C170.489 143.794 170.257 143.647 170.002 143.55C169.748 143.453 169.476 143.408 169.204 143.418L83.9783 146.6C80.1747 146.743 77.9173 150.893 79.8618 154.149Z" fill="url(#paint7_linear_56_165)"/>
<path d="M34.7692 194.17L37.1341 216.841C37.3436 218.851 38.272 220.719 39.7489 222.1C41.2258 223.481 43.1521 224.284 45.1741 224.362L58.3905 224.868C59.5214 224.912 60.6495 224.727 61.7071 224.324C62.7647 223.922 63.7301 223.311 64.5454 222.527C65.3606 221.743 66.009 220.802 66.4516 219.762C66.8941 218.722 67.1218 217.603 67.121 216.473V192.022C67.1213 190.861 66.8806 189.713 66.4141 188.65C65.9476 187.587 65.2654 186.632 64.4107 185.845C63.556 185.059 62.5472 184.458 61.4481 184.081C60.3491 183.703 59.1836 183.557 58.0253 183.653L42.4468 184.931C41.3305 185.022 40.2437 185.335 39.2502 185.851C38.2567 186.367 37.3765 187.077 36.6613 187.937C35.9461 188.798 35.4102 189.793 35.0853 190.863C34.7604 191.934 34.6529 193.058 34.7692 194.17Z" fill="url(#paint8_linear_56_165)"/>
<path d="M81.2441 187.181C103.241 186.493 187.682 183.757 209.005 183.065C209.642 183.044 210.278 183.152 210.873 183.381C211.469 183.611 212.012 183.958 212.47 184.402C212.929 184.845 213.293 185.376 213.542 185.963C213.79 186.55 213.918 187.181 213.918 187.819C213.917 189.049 213.439 190.232 212.584 191.118C211.728 192.005 210.563 192.525 209.331 192.571L81.6534 197.306C80.4666 197.35 79.3063 196.949 78.3997 196.183C77.4932 195.417 76.9058 194.34 76.7527 193.164L76.6728 192.548C76.5868 191.89 76.6398 191.221 76.8283 190.584C77.0169 189.948 77.3367 189.358 77.7673 188.853C78.1979 188.347 78.7297 187.937 79.3285 187.649C79.9273 187.362 80.5799 187.202 81.2441 187.181Z" fill="url(#paint9_linear_56_165)"/>
<path opacity="0.78" d="M79.8618 217.07C80.0461 217.378 80.3091 217.632 80.624 217.805C80.9388 217.978 81.2941 218.065 81.6534 218.055L169.324 216.153C169.853 216.142 170.357 215.924 170.727 215.546C171.098 215.168 171.305 214.66 171.306 214.131V208.359C171.306 208.087 171.251 207.818 171.144 207.567C171.037 207.317 170.881 207.091 170.685 206.902C170.489 206.713 170.257 206.566 170.002 206.469C169.748 206.372 169.476 206.327 169.204 206.337L83.9714 209.519C80.1747 209.661 77.9173 213.811 79.8618 217.07Z" fill="white"/>
<path d="M34.7692 257.09L37.1341 279.759C37.3436 281.769 38.272 283.636 39.7489 285.018C41.2258 286.399 43.1521 287.202 45.1741 287.279L58.3905 287.786C59.5205 287.829 60.6475 287.643 61.7041 287.241C62.7607 286.839 63.7252 286.227 64.5398 285.444C65.3544 284.661 66.0023 283.721 66.4449 282.682C66.8875 281.643 67.1156 280.525 67.1155 279.396V254.94C67.1156 253.779 66.8747 252.631 66.4082 251.568C65.9416 250.505 65.2594 249.551 64.4047 248.764C63.55 247.978 62.5413 247.377 61.4423 247C60.3433 246.622 59.178 246.477 58.0198 246.572L42.4468 247.85C41.3305 247.941 40.2437 248.254 39.2502 248.77C38.2567 249.287 37.3765 249.996 36.6613 250.857C35.9461 251.717 35.4102 252.712 35.0853 253.782C34.7604 254.853 34.6529 255.977 34.7692 257.09Z" fill="url(#paint10_linear_56_165)"/>
<path d="M81.2441 250.102C103.241 249.414 187.682 246.676 209.005 245.984C209.642 245.963 210.278 246.071 210.873 246.301C211.469 246.531 212.011 246.878 212.47 247.321C212.928 247.765 213.293 248.296 213.541 248.883C213.79 249.47 213.918 250.1 213.918 250.738C213.917 251.969 213.439 253.152 212.584 254.038C211.729 254.925 210.563 255.446 209.331 255.492L81.6535 260.225C80.4667 260.269 79.3064 259.868 78.3998 259.102C77.4932 258.336 76.9059 257.26 76.7528 256.084L76.6729 255.467C76.5871 254.809 76.6403 254.14 76.8289 253.504C77.0175 252.868 77.3374 252.278 77.768 251.773C78.1985 251.267 78.7303 250.858 79.329 250.57C79.9277 250.282 80.5801 250.123 81.2441 250.102Z" fill="url(#paint11_linear_56_165)"/>
<path d="M79.8619 279.988C80.0461 280.296 80.3091 280.55 80.6239 280.723C80.9387 280.897 81.294 280.983 81.6535 280.974L169.324 279.072C169.852 279.06 170.354 278.843 170.724 278.466C171.093 278.089 171.301 277.583 171.303 277.056V271.275C171.303 271.003 171.248 270.734 171.141 270.484C171.035 270.234 170.879 270.007 170.682 269.819C170.486 269.63 170.254 269.483 169.999 269.386C169.745 269.289 169.473 269.245 169.201 269.255L83.9756 272.437C80.1747 272.58 77.9173 276.73 79.8619 279.988Z" fill="url(#paint12_linear_56_165)"/>
<g style="mix-blend-mode:soft-light">
<path d="M290.185 263.726C289.928 263.726 289.68 263.625 289.496 263.445C289.312 263.265 289.206 263.02 289.2 262.763C289.2 262.733 289.139 259.629 288.84 248.99C288.839 248.733 288.939 248.486 289.118 248.301C289.298 248.116 289.542 248.009 289.799 248.002C290.057 247.995 290.307 248.088 290.496 248.262C290.685 248.437 290.799 248.678 290.812 248.935C291.113 259.586 291.172 262.698 291.173 262.726C291.178 262.986 291.079 263.238 290.898 263.426C290.718 263.615 290.47 263.724 290.209 263.73L290.185 263.726Z" fill="white"/>
</g>
<g style="mix-blend-mode:soft-light">
<path d="M289.469 237.759C289.212 237.758 288.967 237.658 288.783 237.48C288.599 237.302 288.492 237.06 288.483 236.804C288.271 229.878 287.94 222.223 287.59 214.118C287.119 203.168 286.626 191.844 286.371 180.936C285.69 152.147 290.444 141.096 294.554 136.893C296.787 134.61 298.658 134.544 298.863 134.544C299.119 134.55 299.362 134.655 299.541 134.837C299.721 135.019 299.822 135.263 299.825 135.518C299.828 135.774 299.731 136.02 299.556 136.205C299.38 136.391 299.139 136.501 298.884 136.513C298.659 136.53 287.323 137.774 288.344 180.887C288.602 191.777 289.09 203.09 289.562 214.032C289.912 222.143 290.243 229.805 290.455 236.742C290.459 236.871 290.438 237 290.392 237.121C290.346 237.242 290.277 237.352 290.188 237.447C290.1 237.541 289.993 237.617 289.875 237.67C289.757 237.723 289.63 237.752 289.5 237.756L289.469 237.759Z" fill="white"/>
</g>
<path d="M146.496 343.935C145.497 343.935 144.495 343.463 143.438 342.493C139.552 338.928 138.549 333.449 138.276 328.238C136.484 330.242 134.648 332.193 132.835 334.123L131.832 333.183C133.961 330.916 136.119 328.619 138.203 326.246C138.031 319.084 138.359 311.918 139.183 304.8C139.688 300.45 140.415 295.846 142.304 291.647C142.905 290.309 143.904 288.389 145.623 287.189C147.414 285.936 149.765 285.801 151.339 286.857C153.107 288.043 153.584 290.298 153.788 291.881C154.99 301.215 151.343 309.773 148.073 315.304C145.645 319.413 142.706 323.172 139.593 326.746C139.754 332.081 140.495 337.924 144.37 341.473C145.186 342.223 145.897 342.574 146.562 342.552C147.654 342.513 148.537 341.451 149.258 340.424C152.519 335.769 155.081 330.663 156.864 325.268C157.071 323.642 157.528 322.058 158.217 320.57L159.51 321.023C159.135 322.561 158.703 324.077 158.213 325.572C158.029 327.101 158.089 328.65 158.39 330.161C158.551 330.963 159.229 333.611 161.186 333.984C162.647 334.259 164.17 333.158 165.851 330.605L172.742 320.145L171.871 323.89C171.563 325.213 171.044 328.37 172.896 329.128C173.949 329.56 175.06 328.936 176.341 328.21C177.623 327.485 178.943 326.745 180.447 326.947L181.157 327.04L181.035 327.745C180.965 328.147 180.408 331.688 182.248 332.094C183.09 332.281 183.794 331.698 184.855 330.718C185.691 329.947 186.553 329.15 187.688 328.876L188.011 330.213C187.224 330.403 186.527 331.046 185.79 331.727C184.744 332.69 183.559 333.791 181.95 333.436C179.856 332.974 179.342 330.616 179.569 328.316C178.742 328.436 177.899 328.911 177.017 329.408C175.619 330.194 174.034 331.084 172.367 330.399C170.989 329.833 170.244 328.472 170.188 326.513L166.995 331.361C165.706 333.317 163.678 335.861 160.923 335.334C159.033 334.975 157.578 333.142 157.035 330.432C156.96 330.054 156.898 329.673 156.849 329.291C155.152 333.496 152.983 337.494 150.381 341.21C149.52 342.442 148.314 343.863 146.607 343.925L146.496 343.935ZM148.892 287.516C148.003 287.533 147.14 287.812 146.411 288.319C144.972 289.323 144.094 291.023 143.559 292.214C141.747 296.242 141.043 300.721 140.551 304.961C139.792 311.509 139.457 318.099 139.549 324.69C142.246 321.514 144.771 318.189 146.888 314.608C150.048 309.262 153.574 301.004 152.422 292.058C152.147 289.956 151.562 288.667 150.57 288.001C150.072 287.675 149.487 287.506 148.892 287.516Z" fill="url(#paint13_linear_56_165)"/>
<path opacity="0.78" d="M206.896 95.9387L45.4539 100.723C42.6659 100.805 39.9568 99.7922 37.9084 97.9015C35.8601 96.0107 34.636 93.3932 34.499 90.611L33.9023 78.5501C33.8335 77.1353 34.0484 75.7211 34.5343 74.3903C35.0203 73.0596 35.7674 71.8392 36.732 70.8008C37.6966 69.7623 38.8592 68.9267 40.1515 68.3431C41.4438 67.7594 42.8398 67.4394 44.2576 67.4018L206.503 63.1173C207.941 63.0793 209.372 63.3327 210.71 63.8622C212.047 64.3917 213.263 65.1863 214.285 66.198C215.306 67.2098 216.112 68.4177 216.653 69.7489C217.194 71.0801 217.459 72.507 217.433 73.9435L217.224 85.5048C217.173 88.2356 216.072 90.8423 214.15 92.7847C212.227 94.7272 209.63 95.8565 206.896 95.9387Z" fill="white"/>
<path d="M156.043 222.966C156.043 222.966 150.658 219.439 149.913 220.252C149.647 220.541 149.028 221.525 148.45 222.592C148.251 222.96 148.174 223.382 148.231 223.797C148.288 224.212 148.475 224.598 148.766 224.9L150.155 226.333C150.466 226.656 150.843 226.909 151.26 227.074C151.677 227.239 152.124 227.314 152.572 227.292C153.021 227.269 153.459 227.152 153.857 226.946C154.256 226.741 154.606 226.452 154.884 226.1C155.576 225.195 155.98 224.103 156.043 222.966Z" fill="url(#paint14_linear_56_165)"/>
<path d="M161.533 216.268C161.533 216.268 159.685 211.405 157.521 211.855C155.358 212.305 153.001 213.955 153.001 213.955L149.534 218.635C149.534 218.635 159.267 222.465 162.691 220.27C162.691 220.27 172.634 221.986 185.189 219.929C183.371 216.095 182.295 212.26 181.653 209.281C175.299 212.88 168.449 215.566 161.533 216.268Z" fill="url(#paint15_linear_56_165)"/>
<path d="M214.199 181.031C214.199 181.031 199.968 198.937 181.658 209.285C182.294 212.264 183.377 216.1 185.195 219.933C194.691 218.376 205.682 214.661 215 206.409L214.199 181.031Z" fill="url(#paint16_linear_56_165)"/>
<path d="M231.952 260.394C229.168 247.181 226.384 239.543 217.068 214.511C214.135 206.635 211.471 198.664 212.759 190.358L214.204 181.031C214.204 181.031 232.32 174.909 252.399 180.773C252.399 180.773 279.795 192.658 261.188 251.358C252.795 260.73 242.978 263.401 231.952 260.394Z" fill="url(#paint17_linear_56_165)"/>
<path d="M217.283 169.125L221.98 180.396C222.126 180.746 222.359 181.053 222.656 181.288C222.953 181.524 223.305 181.681 223.679 181.745C226.387 182.209 232.937 182.934 237.239 180.108C237.36 180.028 237.464 179.924 237.545 179.803C237.626 179.682 237.682 179.546 237.709 179.403C237.736 179.26 237.735 179.113 237.704 178.971C237.674 178.828 237.615 178.693 237.532 178.574L228.85 166.13L217.283 169.125Z" fill="url(#paint18_linear_56_165)"/>
<path d="M222.141 151.883C221.944 152.068 213.816 168.009 213.816 168.009L223.029 172.451L232.98 158.485C232.98 158.485 225.443 148.782 222.141 151.883Z" fill="url(#paint19_linear_56_165)"/>
<path d="M228.793 160.161L224.199 167.811C224.129 167.926 224.045 168.031 223.946 168.123C223.395 168.633 221.528 170.111 220.088 168.097C218.847 166.381 217.698 164.822 216.458 164.177C216.285 164.089 216.096 164.036 215.903 164.021C215.709 164.006 215.515 164.03 215.33 164.091C215.146 164.151 214.976 164.248 214.829 164.375C214.682 164.502 214.562 164.656 214.476 164.83C213.718 166.329 212.252 169.383 211.331 172.279C211.222 172.629 211.249 173.007 211.406 173.339C211.564 173.67 211.84 173.931 212.181 174.068C214.047 174.822 217.735 176.187 221.001 176.639C221.265 176.675 221.533 176.639 221.778 176.535C222.022 176.431 222.234 176.263 222.39 176.048C223.798 174.121 227.765 168.741 229.119 167.394C230.377 166.143 232.702 166.614 233.745 166.915C233.941 166.971 234.146 166.987 234.348 166.96C234.55 166.934 234.745 166.866 234.919 166.761C235.98 166.122 237.833 164.533 236.139 161.84C235.94 161.514 235.876 161.123 235.961 160.75C236.046 160.378 236.273 160.053 236.594 159.845C237.779 159.066 239.065 157.605 237.834 155.238C236.594 152.843 234.379 152.623 232.873 152.812C232.545 152.856 232.212 152.794 231.924 152.634C231.635 152.473 231.406 152.224 231.271 151.923C231.208 151.766 231.105 151.628 230.972 151.523C230.839 151.419 230.681 151.351 230.513 151.327C230.327 151.294 230.149 151.224 229.989 151.122C229.83 151.02 229.692 150.887 229.585 150.731C229.477 150.576 229.402 150.4 229.363 150.215C229.324 150.03 229.323 149.839 229.358 149.653C229.624 148.297 229.425 146.537 227.257 145.346C223.282 143.164 219.8 146.723 218.915 149.722C218.03 152.721 222.473 154.846 225.269 155.201C227.323 155.461 228.449 157.699 228.902 158.869C228.984 159.078 229.017 159.304 228.998 159.528C228.979 159.752 228.909 159.968 228.793 160.161Z" fill="url(#paint20_linear_56_165)"/>
<path d="M227.182 169.687C227.182 169.687 229.16 165.04 231.423 165.23C233.686 165.42 235.466 167.671 232.663 170.202C229.174 173.349 227.182 169.687 227.182 169.687Z" fill="url(#paint21_linear_56_165)"/>
<path d="M230.169 376.78C234.544 377.158 242.138 377.771 248.123 378.035C251.721 378.193 253.794 377.841 254.986 377.363C254.986 377.501 254.986 377.625 254.975 377.743C254.958 378.048 254.828 378.336 254.611 378.552C254.394 378.767 254.105 378.895 253.8 378.91C245.97 379.356 238.121 379.364 230.29 378.934C230.139 378.927 229.992 378.88 229.864 378.8C229.735 378.72 229.63 378.607 229.558 378.474C229.486 378.341 229.449 378.192 229.452 378.041C229.454 377.89 229.495 377.742 229.572 377.611C229.751 377.32 229.95 377.042 230.169 376.78Z" fill="url(#paint22_linear_56_165)"/>
<path d="M248.123 378.035C242.138 377.771 234.544 377.158 230.169 376.78C234.47 371.51 248.123 367.957 248.123 367.957H251.982C254.635 371.775 255.014 375.41 254.989 377.363C253.794 377.841 251.721 378.193 248.123 378.035Z" fill="url(#paint23_linear_56_165)"/>
<path d="M252.63 361.67L252.269 368.801C252.25 369.178 252.101 369.537 251.847 369.816C251.593 370.096 251.249 370.278 250.875 370.333C249.905 370.478 248.914 370.396 247.981 370.094C247.651 369.986 247.357 369.792 247.128 369.531C246.9 369.27 246.746 368.953 246.683 368.613L245.443 361.67H252.63Z" fill="url(#paint24_linear_56_165)"/>
<path d="M302.714 377.981C304.612 377.717 305.47 376.733 305.83 375.68C305.831 375.69 305.831 375.699 305.83 375.709C306.106 376.818 305.462 377.969 304.176 378.515C302.612 379.177 300.902 379.29 299.575 379.235C298.151 379.177 296.843 378.588 296.129 377.647L296.118 377.632C297.54 378.339 299.55 378.422 302.714 377.981Z" fill="url(#paint25_linear_56_165)"/>
<path d="M293.768 361.625H296.949C301.793 361.526 304.835 371.729 305.83 375.68C305.47 376.733 304.612 377.717 302.714 377.981C299.544 378.422 297.543 378.339 296.114 377.632C293.496 374.191 292.2 369.156 291.576 366.216C290.867 362.873 293.768 361.625 293.768 361.625Z" fill="url(#paint26_linear_56_165)"/>
<path d="M296.54 355.005L298.307 362.024C298.41 362.443 298.369 362.884 298.188 363.276C298.008 363.668 297.7 363.987 297.314 364.181C296.326 364.687 294.936 365.22 293.657 365.066C293.363 365.027 293.086 364.907 292.857 364.72C292.627 364.532 292.455 364.285 292.359 364.005L289.766 356.625L296.54 355.005Z" fill="url(#paint27_linear_56_165)"/>
<path d="M298.643 357.032C296.438 358.98 289.299 359.234 289.299 359.234C263.558 297.535 252.827 280.549 252.827 280.549C256.548 303.838 253.627 363.615 253.627 363.615C249.38 365.487 243.903 363.615 243.903 363.615C243.559 325.491 238.184 284.521 231.252 258.308C248.649 257.917 258.105 254.129 261.126 251.744C275.628 275.095 298.643 357.032 298.643 357.032Z" fill="url(#paint28_linear_56_165)"/>
<path d="M226.874 275.55L230.075 295.436C230.348 297.108 231.258 298.609 232.616 299.625C233.974 300.64 235.672 301.091 237.356 300.882L285.275 295.045C286.407 294.91 287.451 294.371 288.217 293.529C288.983 292.686 289.419 291.595 289.444 290.457C289.546 285.32 289.345 276.175 287.185 267.844L226.874 275.55Z" fill="url(#paint29_linear_56_165)"/>
<path d="M238.969 299.548C238.931 299.548 238.894 299.534 238.865 299.509C238.836 299.484 238.817 299.449 238.812 299.41C238.81 299.39 238.811 299.369 238.817 299.349C238.822 299.329 238.832 299.31 238.844 299.294C238.857 299.278 238.873 299.264 238.891 299.254C238.91 299.244 238.93 299.238 238.95 299.236L240.21 299.077C240.23 299.075 240.251 299.076 240.272 299.082C240.292 299.087 240.31 299.097 240.327 299.109C240.343 299.122 240.357 299.138 240.367 299.156C240.377 299.174 240.384 299.194 240.386 299.215C240.391 299.257 240.38 299.299 240.354 299.332C240.328 299.365 240.29 299.386 240.248 299.391L238.997 299.544L238.969 299.548ZM236.049 299.493C236.036 299.494 236.023 299.494 236.011 299.493C235.592 299.389 235.186 299.244 234.796 299.06C234.76 299.041 234.732 299.008 234.719 298.969C234.706 298.93 234.709 298.887 234.727 298.85C234.745 298.813 234.777 298.785 234.815 298.771C234.854 298.756 234.897 298.758 234.934 298.775C235.304 298.951 235.691 299.089 236.089 299.188C236.126 299.197 236.158 299.22 236.179 299.252C236.201 299.283 236.21 299.321 236.205 299.359C236.201 299.397 236.183 299.432 236.155 299.457C236.126 299.483 236.09 299.498 236.052 299.499L236.049 299.493ZM243.141 299.039C243.099 299.041 243.058 299.027 243.027 299C242.996 298.972 242.977 298.933 242.974 298.892C242.972 298.85 242.986 298.809 243.014 298.778C243.041 298.747 243.08 298.728 243.122 298.725L244.375 298.574C244.395 298.571 244.416 298.572 244.436 298.578C244.456 298.583 244.475 298.593 244.491 298.606C244.507 298.619 244.521 298.634 244.531 298.653C244.541 298.671 244.547 298.691 244.55 298.711C244.555 298.753 244.543 298.795 244.517 298.828C244.491 298.861 244.453 298.882 244.412 298.887L243.16 299.039H243.141ZM247.313 298.531C247.271 298.534 247.23 298.519 247.199 298.492C247.168 298.464 247.149 298.425 247.146 298.384C247.143 298.342 247.157 298.301 247.185 298.27C247.213 298.239 247.252 298.22 247.293 298.217L248.546 298.064C248.567 298.061 248.588 298.062 248.608 298.068C248.628 298.073 248.647 298.083 248.663 298.095C248.68 298.108 248.693 298.124 248.703 298.143C248.713 298.161 248.719 298.181 248.721 298.202C248.724 298.223 248.722 298.243 248.717 298.263C248.711 298.283 248.702 298.302 248.689 298.318C248.676 298.335 248.66 298.348 248.642 298.358C248.624 298.368 248.604 298.375 248.583 298.377L247.331 298.53L247.313 298.531ZM251.486 298.023C251.447 298.023 251.41 298.009 251.381 297.984C251.352 297.959 251.334 297.924 251.329 297.886C251.326 297.865 251.327 297.844 251.333 297.824C251.338 297.804 251.348 297.785 251.361 297.769C251.374 297.753 251.389 297.739 251.408 297.729C251.426 297.719 251.446 297.713 251.466 297.711L252.718 297.558C252.759 297.553 252.801 297.564 252.834 297.59C252.867 297.616 252.888 297.653 252.893 297.695C252.899 297.736 252.887 297.778 252.861 297.811C252.836 297.844 252.798 297.865 252.756 297.87L251.505 298.023H251.486ZM255.657 297.515C255.619 297.515 255.582 297.501 255.553 297.476C255.524 297.451 255.505 297.416 255.5 297.378C255.498 297.357 255.499 297.336 255.505 297.316C255.51 297.296 255.52 297.278 255.533 297.262C255.546 297.245 255.561 297.232 255.58 297.222C255.598 297.212 255.617 297.205 255.638 297.203L256.889 297.05C256.91 297.047 256.931 297.048 256.951 297.054C256.971 297.059 256.99 297.068 257.007 297.081C257.023 297.094 257.037 297.11 257.047 297.128C257.057 297.147 257.063 297.167 257.064 297.188C257.069 297.229 257.058 297.271 257.032 297.304C257.006 297.337 256.968 297.359 256.927 297.364L255.675 297.517L255.657 297.515ZM232.596 297.24C232.571 297.24 232.547 297.235 232.525 297.224C232.504 297.213 232.485 297.197 232.47 297.178C232.206 296.836 231.978 296.467 231.791 296.077C231.782 296.059 231.776 296.039 231.775 296.018C231.773 295.998 231.776 295.977 231.783 295.957C231.789 295.938 231.8 295.92 231.814 295.905C231.827 295.889 231.844 295.877 231.862 295.868C231.9 295.85 231.943 295.847 231.983 295.86C232.022 295.874 232.055 295.902 232.073 295.939C232.253 296.308 232.469 296.657 232.72 296.981C232.732 296.998 232.742 297.016 232.747 297.036C232.753 297.056 232.754 297.077 232.751 297.097C232.749 297.118 232.742 297.138 232.732 297.156C232.721 297.173 232.707 297.189 232.691 297.201C232.665 297.225 232.633 297.24 232.598 297.243L232.596 297.24ZM259.829 297.003C259.791 297.004 259.753 296.99 259.725 296.964C259.696 296.939 259.678 296.904 259.673 296.866C259.668 296.824 259.68 296.782 259.706 296.749C259.732 296.716 259.769 296.695 259.811 296.689L261.062 296.537C261.083 296.534 261.104 296.535 261.124 296.54C261.145 296.545 261.164 296.555 261.18 296.568C261.197 296.581 261.21 296.597 261.22 296.615C261.231 296.633 261.237 296.654 261.239 296.674C261.241 296.695 261.24 296.716 261.234 296.736C261.229 296.756 261.219 296.774 261.206 296.79C261.193 296.807 261.178 296.82 261.16 296.83C261.141 296.84 261.122 296.847 261.101 296.849L259.85 297.002L259.829 297.003ZM264.001 296.495C263.959 296.498 263.918 296.484 263.887 296.456C263.855 296.429 263.836 296.39 263.834 296.348C263.831 296.307 263.845 296.266 263.873 296.234C263.901 296.203 263.94 296.184 263.981 296.182L265.234 296.029C265.275 296.025 265.317 296.036 265.35 296.062C265.382 296.088 265.404 296.125 265.409 296.166C265.412 296.187 265.41 296.208 265.405 296.228C265.399 296.248 265.39 296.267 265.377 296.283C265.364 296.299 265.348 296.313 265.33 296.323C265.312 296.333 265.292 296.339 265.271 296.341L264.02 296.494L264.001 296.495ZM268.172 295.988C268.131 295.99 268.09 295.976 268.059 295.948C268.027 295.92 268.009 295.881 268.006 295.84C268.004 295.798 268.018 295.757 268.046 295.726C268.074 295.695 268.113 295.676 268.154 295.674L269.406 295.521C269.426 295.518 269.447 295.519 269.467 295.525C269.487 295.53 269.506 295.54 269.523 295.553C269.539 295.565 269.552 295.581 269.562 295.6C269.572 295.618 269.579 295.638 269.581 295.659C269.583 295.679 269.582 295.7 269.576 295.72C269.57 295.74 269.561 295.758 269.548 295.775C269.535 295.791 269.519 295.804 269.501 295.814C269.483 295.825 269.463 295.831 269.443 295.833L268.19 295.986L268.172 295.988ZM272.345 295.478C272.306 295.478 272.267 295.463 272.239 295.435C272.21 295.408 272.192 295.371 272.19 295.331C272.187 295.291 272.2 295.252 272.225 295.222C272.251 295.191 272.287 295.171 272.326 295.166L273.577 295.013C273.598 295.01 273.619 295.011 273.639 295.016C273.66 295.021 273.679 295.031 273.695 295.044C273.711 295.057 273.725 295.073 273.735 295.091C273.745 295.11 273.751 295.13 273.752 295.151C273.757 295.192 273.746 295.234 273.72 295.267C273.694 295.3 273.656 295.322 273.615 295.327L272.363 295.478H272.345ZM276.517 294.97C276.475 294.973 276.434 294.959 276.403 294.931C276.372 294.904 276.353 294.865 276.35 294.823C276.348 294.782 276.362 294.741 276.389 294.709C276.417 294.678 276.456 294.659 276.498 294.657L277.749 294.505C277.77 294.502 277.791 294.504 277.811 294.509C277.831 294.514 277.85 294.524 277.866 294.537C277.883 294.55 277.897 294.566 277.907 294.584C277.917 294.602 277.923 294.622 277.925 294.643C277.93 294.684 277.919 294.726 277.893 294.759C277.867 294.792 277.829 294.814 277.788 294.819L276.536 294.97H276.517ZM280.688 294.463C280.647 294.465 280.606 294.451 280.575 294.423C280.543 294.396 280.524 294.357 280.522 294.315C280.519 294.274 280.533 294.233 280.561 294.202C280.589 294.17 280.628 294.151 280.669 294.149L281.921 293.996C281.941 293.993 281.962 293.994 281.982 294C282.003 294.005 282.022 294.015 282.038 294.027C282.054 294.04 282.068 294.056 282.078 294.075C282.088 294.093 282.095 294.113 282.097 294.134C282.099 294.154 282.098 294.175 282.092 294.195C282.087 294.215 282.077 294.233 282.064 294.25C282.052 294.266 282.036 294.279 282.018 294.29C282 294.3 281.98 294.306 281.959 294.308L280.708 294.461L280.688 294.463ZM284.842 293.857C284.804 293.858 284.767 293.846 284.737 293.822C284.708 293.797 284.688 293.763 284.682 293.726C284.676 293.688 284.683 293.65 284.703 293.617C284.724 293.585 284.755 293.561 284.791 293.55C285.175 293.417 285.539 293.232 285.872 293C285.906 292.98 285.947 292.974 285.985 292.982C286.024 292.991 286.058 293.014 286.081 293.046C286.103 293.079 286.113 293.119 286.108 293.158C286.103 293.197 286.083 293.233 286.052 293.258C285.695 293.507 285.305 293.705 284.893 293.847C284.878 293.854 284.862 293.858 284.845 293.86L284.842 293.857ZM231.208 293.338C231.17 293.338 231.133 293.324 231.104 293.298C231.076 293.273 231.057 293.238 231.052 293.2L230.852 291.962C230.849 291.941 230.85 291.92 230.855 291.9C230.859 291.88 230.868 291.861 230.88 291.845C230.892 291.828 230.908 291.814 230.925 291.803C230.943 291.792 230.963 291.785 230.983 291.781C231.004 291.778 231.024 291.779 231.045 291.784C231.065 291.789 231.084 291.797 231.101 291.809C231.117 291.822 231.131 291.837 231.142 291.855C231.153 291.872 231.16 291.892 231.164 291.912L231.364 293.151C231.367 293.171 231.366 293.192 231.361 293.212C231.357 293.233 231.348 293.252 231.336 293.268C231.323 293.285 231.308 293.299 231.29 293.31C231.273 293.321 231.253 293.328 231.233 293.331L231.208 293.338ZM287.673 290.963C287.657 290.965 287.642 290.965 287.626 290.963C287.586 290.95 287.553 290.922 287.533 290.885C287.514 290.848 287.51 290.804 287.523 290.764C287.646 290.378 287.713 289.976 287.723 289.571C287.723 289.53 287.74 289.491 287.769 289.462C287.799 289.433 287.838 289.417 287.88 289.417C287.9 289.417 287.921 289.422 287.939 289.43C287.958 289.439 287.975 289.451 287.99 289.466C288.004 289.481 288.015 289.498 288.022 289.518C288.03 289.537 288.033 289.557 288.033 289.578C288.023 290.013 287.951 290.445 287.819 290.859C287.809 290.89 287.79 290.916 287.764 290.935C287.738 290.954 287.708 290.964 287.676 290.965L287.673 290.963ZM230.541 289.194C230.503 289.194 230.466 289.179 230.438 289.154C230.409 289.129 230.391 289.094 230.386 289.056L230.185 287.818C230.179 287.776 230.189 287.734 230.213 287.7C230.238 287.667 230.275 287.644 230.316 287.637C230.357 287.631 230.4 287.641 230.433 287.665C230.467 287.69 230.49 287.727 230.497 287.768L230.696 289.007C230.7 289.027 230.699 289.048 230.694 289.068C230.69 289.088 230.681 289.107 230.669 289.124C230.657 289.14 230.642 289.155 230.624 289.166C230.607 289.176 230.587 289.184 230.567 289.187L230.541 289.194ZM287.893 286.789C287.852 286.789 287.812 286.773 287.783 286.744C287.753 286.715 287.737 286.675 287.736 286.634C287.736 286.221 287.727 285.808 287.717 285.376C287.716 285.334 287.732 285.294 287.761 285.264C287.79 285.234 287.83 285.216 287.871 285.215C287.893 285.213 287.914 285.215 287.934 285.222C287.954 285.229 287.972 285.24 287.988 285.255C288.003 285.269 288.015 285.287 288.023 285.307C288.031 285.327 288.034 285.348 288.033 285.369C288.042 285.803 288.048 286.224 288.052 286.631C288.052 286.673 288.035 286.713 288.006 286.743C287.977 286.772 287.937 286.789 287.895 286.789H287.893ZM229.874 285.053C229.836 285.052 229.799 285.038 229.77 285.013C229.741 284.988 229.723 284.953 229.718 284.915L229.518 283.676C229.512 283.635 229.522 283.593 229.546 283.559C229.571 283.525 229.608 283.503 229.649 283.496C229.69 283.489 229.733 283.499 229.766 283.524C229.8 283.548 229.823 283.585 229.83 283.627L230.029 284.865C230.033 284.886 230.032 284.908 230.027 284.928C230.021 284.949 230.012 284.968 229.999 284.985C229.986 285.002 229.97 285.016 229.952 285.026C229.933 285.037 229.913 285.043 229.892 285.046L229.874 285.053ZM287.773 282.593C287.733 282.593 287.694 282.578 287.664 282.551C287.635 282.523 287.617 282.485 287.615 282.444C287.594 282.031 287.57 281.613 287.543 281.189C287.542 281.168 287.545 281.148 287.551 281.128C287.558 281.108 287.568 281.09 287.582 281.074C287.596 281.059 287.612 281.046 287.631 281.037C287.65 281.028 287.67 281.023 287.691 281.021C287.796 281.021 287.852 281.082 287.858 281.169C287.885 281.594 287.909 282.015 287.931 282.428C287.932 282.449 287.929 282.469 287.922 282.489C287.915 282.508 287.904 282.526 287.89 282.542C287.876 282.557 287.859 282.57 287.84 282.578C287.822 282.587 287.801 282.592 287.78 282.593H287.773ZM229.203 280.908C229.164 280.908 229.128 280.894 229.099 280.869C229.07 280.843 229.052 280.809 229.047 280.771L228.847 279.532C228.844 279.512 228.845 279.491 228.849 279.471C228.854 279.451 228.863 279.432 228.875 279.415C228.887 279.398 228.903 279.384 228.92 279.373C228.938 279.362 228.957 279.355 228.978 279.352C228.998 279.349 229.019 279.349 229.039 279.354C229.06 279.359 229.079 279.368 229.095 279.38C229.112 279.392 229.126 279.407 229.137 279.425C229.148 279.443 229.155 279.462 229.158 279.483L229.358 280.721C229.362 280.742 229.361 280.764 229.355 280.784C229.35 280.805 229.341 280.824 229.328 280.841C229.315 280.858 229.299 280.872 229.28 280.882C229.262 280.893 229.242 280.899 229.22 280.902L229.203 280.908ZM287.462 278.406C287.424 278.406 287.387 278.392 287.358 278.367C287.329 278.341 287.31 278.307 287.305 278.269C287.265 277.856 287.222 277.443 287.167 277.019C287.162 276.977 287.174 276.936 287.2 276.903C287.226 276.871 287.264 276.85 287.306 276.845C287.347 276.84 287.389 276.852 287.421 276.878C287.454 276.904 287.475 276.942 287.48 276.983C287.529 277.404 287.575 277.823 287.618 278.238C287.622 278.279 287.61 278.32 287.584 278.353C287.558 278.385 287.521 278.406 287.48 278.41L287.462 278.406ZM228.536 276.764C228.497 276.764 228.461 276.75 228.432 276.725C228.403 276.699 228.385 276.664 228.38 276.627L228.154 275.223L229.309 275.076C229.329 275.073 229.35 275.074 229.371 275.079C229.391 275.085 229.41 275.094 229.426 275.107C229.443 275.12 229.456 275.136 229.466 275.154C229.477 275.172 229.483 275.192 229.485 275.213C229.49 275.255 229.478 275.297 229.453 275.33C229.427 275.363 229.389 275.384 229.347 275.389L228.52 275.495L228.694 276.578C228.697 276.599 228.696 276.621 228.691 276.641C228.686 276.662 228.677 276.681 228.664 276.698C228.651 276.715 228.635 276.729 228.616 276.739C228.598 276.75 228.577 276.756 228.556 276.759L228.536 276.764ZM232.247 275.02C232.205 275.023 232.164 275.009 232.133 274.982C232.101 274.954 232.082 274.916 232.079 274.874C232.077 274.832 232.091 274.791 232.118 274.76C232.146 274.729 232.185 274.709 232.226 274.707L233.478 274.547C233.498 274.543 233.52 274.544 233.54 274.549C233.561 274.554 233.58 274.563 233.597 274.576C233.613 274.589 233.627 274.606 233.637 274.624C233.647 274.643 233.653 274.664 233.654 274.685C233.659 274.726 233.647 274.768 233.622 274.801C233.596 274.834 233.558 274.856 233.516 274.861L232.265 275.02H232.247ZM236.416 274.488C236.377 274.486 236.34 274.47 236.312 274.443C236.285 274.415 236.268 274.379 236.265 274.34C236.263 274.301 236.275 274.263 236.299 274.232C236.322 274.202 236.357 274.181 236.395 274.174L237.646 274.014C237.667 274.011 237.689 274.011 237.709 274.016C237.73 274.021 237.749 274.031 237.765 274.044C237.782 274.057 237.796 274.073 237.806 274.092C237.816 274.11 237.821 274.131 237.823 274.152C237.826 274.173 237.824 274.194 237.819 274.214C237.813 274.234 237.804 274.252 237.791 274.269C237.778 274.285 237.762 274.299 237.744 274.309C237.726 274.319 237.706 274.326 237.685 274.328L236.435 274.488H236.416ZM286.948 274.24C286.91 274.239 286.873 274.225 286.845 274.2C286.816 274.175 286.798 274.14 286.792 274.102C286.73 273.69 286.663 273.277 286.592 272.864C286.586 272.823 286.596 272.781 286.62 272.747C286.644 272.713 286.681 272.689 286.722 272.682C286.742 272.679 286.763 272.679 286.784 272.684C286.804 272.688 286.823 272.697 286.84 272.709C286.857 272.721 286.871 272.736 286.882 272.754C286.893 272.771 286.901 272.791 286.904 272.811C286.974 273.224 287.042 273.637 287.104 274.05C287.107 274.071 287.106 274.092 287.101 274.113C287.096 274.134 287.086 274.153 287.073 274.17C287.061 274.187 287.044 274.201 287.026 274.211C287.007 274.222 286.987 274.228 286.966 274.23L286.948 274.24ZM240.585 273.955C240.546 273.953 240.509 273.937 240.481 273.91C240.454 273.883 240.437 273.846 240.434 273.807C240.432 273.769 240.443 273.73 240.467 273.7C240.491 273.669 240.526 273.648 240.564 273.641L241.815 273.482C241.836 273.478 241.857 273.479 241.878 273.484C241.898 273.489 241.917 273.499 241.934 273.512C241.95 273.525 241.964 273.541 241.974 273.559C241.984 273.578 241.99 273.598 241.992 273.619C241.994 273.64 241.993 273.661 241.987 273.681C241.982 273.701 241.973 273.72 241.96 273.736C241.947 273.753 241.931 273.766 241.913 273.776C241.895 273.787 241.875 273.793 241.854 273.796L240.604 273.955H240.585ZM244.753 273.423C244.715 273.421 244.678 273.405 244.65 273.377C244.622 273.35 244.606 273.314 244.603 273.275C244.601 273.236 244.612 273.198 244.636 273.167C244.66 273.136 244.695 273.116 244.733 273.109L245.984 272.949C246.005 272.946 246.026 272.947 246.046 272.952C246.067 272.957 246.086 272.967 246.102 272.98C246.119 272.992 246.133 273.009 246.143 273.027C246.153 273.046 246.159 273.066 246.161 273.087C246.163 273.107 246.162 273.128 246.156 273.148C246.151 273.168 246.141 273.187 246.129 273.204C246.116 273.22 246.1 273.234 246.082 273.244C246.063 273.254 246.043 273.26 246.023 273.263L244.773 273.423H244.753ZM248.922 272.89C248.881 272.893 248.84 272.879 248.808 272.851C248.777 272.824 248.758 272.785 248.755 272.743C248.752 272.702 248.766 272.661 248.794 272.629C248.821 272.598 248.86 272.579 248.902 272.576L250.153 272.416C250.174 272.413 250.195 272.415 250.215 272.42C250.235 272.425 250.254 272.435 250.271 272.447C250.287 272.46 250.301 272.476 250.311 272.495C250.321 272.513 250.327 272.533 250.329 272.554C250.335 272.596 250.323 272.638 250.297 272.671C250.271 272.704 250.233 272.725 250.192 272.73L248.942 272.89H248.922ZM253.091 272.357C253.05 272.36 253.009 272.346 252.977 272.318C252.946 272.29 252.927 272.252 252.924 272.21C252.922 272.168 252.936 272.127 252.964 272.096C252.991 272.065 253.03 272.046 253.072 272.043L254.322 271.884C254.343 271.88 254.364 271.881 254.384 271.886C254.405 271.891 254.424 271.901 254.441 271.914C254.457 271.927 254.471 271.943 254.481 271.962C254.491 271.98 254.497 272 254.498 272.021C254.503 272.063 254.492 272.105 254.466 272.138C254.44 272.171 254.402 272.192 254.361 272.198L253.111 272.357H253.091ZM257.26 271.825C257.218 271.827 257.177 271.813 257.146 271.785C257.115 271.758 257.096 271.719 257.093 271.677C257.091 271.636 257.105 271.595 257.133 271.564C257.16 271.532 257.199 271.513 257.241 271.511L258.491 271.351C258.512 271.348 258.533 271.349 258.553 271.355C258.573 271.36 258.592 271.369 258.609 271.382C258.625 271.395 258.639 271.411 258.649 271.429C258.659 271.448 258.665 271.468 258.667 271.489C258.672 271.531 258.661 271.573 258.635 271.606C258.609 271.639 258.571 271.661 258.529 271.666L257.279 271.826L257.26 271.825ZM261.429 271.292C261.39 271.29 261.353 271.274 261.326 271.247C261.298 271.22 261.281 271.183 261.279 271.144C261.276 271.106 261.288 271.067 261.312 271.037C261.336 271.006 261.37 270.985 261.408 270.978L262.66 270.819C262.68 270.815 262.702 270.816 262.722 270.821C262.742 270.827 262.761 270.836 262.778 270.849C262.794 270.862 262.808 270.878 262.818 270.897C262.828 270.915 262.834 270.935 262.836 270.956C262.841 270.998 262.829 271.04 262.804 271.073C262.778 271.106 262.74 271.127 262.698 271.132L261.448 271.292H261.429ZM265.598 270.759C265.559 270.757 265.522 270.741 265.494 270.714C265.467 270.687 265.45 270.65 265.447 270.612C265.445 270.573 265.457 270.535 265.481 270.504C265.505 270.473 265.539 270.452 265.577 270.446L266.829 270.286C266.849 270.282 266.871 270.283 266.891 270.288C266.912 270.293 266.931 270.302 266.948 270.315C266.964 270.328 266.978 270.345 266.988 270.363C266.998 270.382 267.004 270.402 267.005 270.424C267.01 270.465 266.998 270.507 266.973 270.54C266.947 270.573 266.909 270.595 266.867 270.6L265.617 270.759H265.598ZM269.767 270.225C269.727 270.225 269.689 270.21 269.66 270.182C269.631 270.155 269.614 270.118 269.611 270.078C269.609 270.038 269.622 269.999 269.647 269.969C269.672 269.938 269.708 269.918 269.747 269.913L270.997 269.752C271.018 269.749 271.039 269.75 271.06 269.755C271.08 269.76 271.099 269.769 271.116 269.782C271.132 269.795 271.146 269.811 271.156 269.83C271.166 269.848 271.172 269.869 271.174 269.889C271.177 269.91 271.175 269.931 271.17 269.951C271.164 269.971 271.155 269.99 271.142 270.006C271.129 270.023 271.113 270.036 271.095 270.047C271.077 270.057 271.057 270.063 271.036 270.066L269.786 270.227L269.767 270.225ZM286.187 270.112C286.151 270.113 286.116 270.1 286.088 270.078C286.06 270.055 286.041 270.024 286.033 269.989C285.943 269.576 285.85 269.171 285.75 268.765C285.741 268.725 285.748 268.682 285.769 268.646C285.791 268.611 285.826 268.585 285.866 268.575C285.886 268.57 285.907 268.569 285.928 268.572C285.948 268.575 285.968 268.582 285.986 268.592C286.004 268.603 286.019 268.617 286.031 268.634C286.043 268.651 286.052 268.67 286.056 268.691C286.156 269.1 286.251 269.51 286.342 269.921C286.35 269.962 286.342 270.005 286.32 270.04C286.297 270.076 286.261 270.1 286.22 270.11L286.187 270.112ZM273.936 269.7C273.894 269.702 273.853 269.688 273.822 269.66C273.79 269.633 273.771 269.594 273.769 269.552C273.766 269.511 273.78 269.47 273.808 269.439C273.836 269.407 273.875 269.388 273.916 269.386L275.166 269.226C275.187 269.222 275.209 269.223 275.229 269.228C275.25 269.233 275.269 269.242 275.286 269.255C275.302 269.268 275.316 269.284 275.326 269.303C275.336 269.322 275.342 269.343 275.343 269.364C275.345 269.384 275.344 269.405 275.338 269.425C275.333 269.445 275.324 269.464 275.311 269.481C275.298 269.497 275.282 269.511 275.264 269.521C275.246 269.531 275.226 269.538 275.205 269.54L273.955 269.701L273.936 269.7ZM278.104 269.166C278.063 269.168 278.022 269.154 277.991 269.126C277.959 269.099 277.94 269.06 277.938 269.018C277.935 268.977 277.949 268.936 277.977 268.905C278.005 268.873 278.044 268.854 278.085 268.852L279.335 268.692C279.356 268.689 279.377 268.689 279.398 268.695C279.418 268.7 279.437 268.709 279.454 268.722C279.47 268.735 279.484 268.751 279.494 268.77C279.504 268.788 279.51 268.809 279.512 268.83C279.514 268.85 279.513 268.871 279.507 268.891C279.502 268.911 279.492 268.93 279.48 268.947C279.467 268.963 279.451 268.977 279.433 268.987C279.414 268.997 279.394 269.004 279.374 269.006L278.124 269.166H278.104ZM282.273 268.633C282.235 268.633 282.198 268.619 282.169 268.594C282.14 268.568 282.122 268.533 282.118 268.495C282.113 268.454 282.124 268.411 282.15 268.378C282.176 268.345 282.214 268.323 282.255 268.318L283.505 268.158C283.526 268.155 283.547 268.155 283.568 268.161C283.588 268.166 283.607 268.175 283.624 268.188C283.641 268.201 283.654 268.217 283.664 268.236C283.674 268.254 283.68 268.275 283.682 268.296C283.685 268.316 283.683 268.337 283.678 268.357C283.672 268.377 283.663 268.396 283.65 268.413C283.637 268.429 283.621 268.443 283.603 268.453C283.585 268.463 283.565 268.469 283.544 268.472L282.294 268.632L282.273 268.633Z" fill="white"/>
<path d="M239.048 259.263L238.994 257.705C239.051 257.513 239.155 257.339 239.296 257.198C239.438 257.057 239.613 256.954 239.805 256.898C241.265 256.47 244.912 255.581 246.863 256.682L247.358 258.438L239.048 259.263Z" fill="url(#paint30_linear_56_165)"/>
<path d="M243.517 257.186C243.189 257.312 242.835 257.357 242.485 257.317C242.276 257.293 242.081 257.2 241.931 257.053C241.781 256.906 241.685 256.713 241.658 256.505L241.039 251.687L243.497 251.374L244.114 256.191C244.14 256.399 244.095 256.611 243.987 256.791C243.879 256.971 243.714 257.11 243.517 257.186Z" fill="url(#paint31_linear_56_165)"/>
<path d="M262.847 256.221L262.793 254.663C262.85 254.472 262.954 254.298 263.096 254.157C263.237 254.016 263.412 253.913 263.604 253.857C265.065 253.429 268.711 252.539 270.663 253.64L271.157 255.397L262.847 256.221Z" fill="url(#paint32_linear_56_165)"/>
<path d="M267.316 254.144C266.989 254.274 266.634 254.321 266.284 254.282C266.076 254.258 265.881 254.166 265.731 254.019C265.581 253.872 265.485 253.679 265.457 253.471L264.768 248.141L267.225 247.827L267.914 253.153C267.939 253.361 267.893 253.571 267.785 253.751C267.677 253.93 267.512 254.069 267.316 254.144Z" fill="url(#paint33_linear_56_165)"/>
<path d="M240.942 252.897L267.254 248.647C267.545 248.601 267.812 248.457 268.009 248.239C268.206 248.02 268.322 247.741 268.338 247.447C268.399 246.317 268.282 245.185 267.992 244.091C267.791 243.397 267.352 242.795 266.752 242.393C266.151 241.99 265.427 241.812 264.708 241.889C259.763 242.403 247.214 244.01 240.647 247.626C240.306 247.815 240.016 248.082 239.8 248.406C239.584 248.729 239.449 249.1 239.406 249.487C239.289 250.392 239.383 251.312 239.682 252.175C239.776 252.422 239.953 252.629 240.183 252.76C240.412 252.892 240.68 252.94 240.942 252.897Z" fill="url(#paint34_linear_56_165)"/>
<path d="M240.294 251.887C240.198 251.888 240.105 251.856 240.03 251.797C239.955 251.738 239.902 251.655 239.88 251.562C239.732 250.866 239.698 250.151 239.778 249.444C239.839 249.02 240.008 248.618 240.267 248.277C240.527 247.936 240.87 247.666 241.263 247.494C242.693 246.868 245.441 245.764 247.763 245.4C247.874 245.384 247.986 245.412 248.075 245.478C248.165 245.543 248.226 245.642 248.244 245.751C248.254 245.806 248.252 245.862 248.239 245.916C248.227 245.97 248.203 246.021 248.17 246.065C248.138 246.11 248.096 246.148 248.048 246.176C248.001 246.204 247.948 246.223 247.893 246.23C245.58 246.592 242.722 247.772 241.6 248.262C241.339 248.376 241.111 248.555 240.937 248.782C240.764 249.009 240.652 249.276 240.611 249.558C240.545 250.164 240.575 250.777 240.699 251.374C240.712 251.427 240.715 251.483 240.706 251.538C240.697 251.592 240.677 251.644 240.648 251.691C240.619 251.738 240.58 251.779 240.535 251.81C240.49 251.842 240.439 251.864 240.385 251.876C240.355 251.883 240.324 251.887 240.294 251.887Z" fill="url(#paint35_linear_56_165)"/>
<path d="M226.711 260.229C235.233 259.03 272.115 253.923 283.008 253.844C283.464 253.84 283.91 253.977 284.285 254.236C284.66 254.496 284.945 254.865 285.101 255.294C286.102 258.075 288.23 264.56 288.923 271.17C288.966 271.608 288.857 272.048 288.614 272.416C288.372 272.783 288.01 273.057 287.59 273.191L263.696 280.947L254.997 282.058L228.242 280.213C227.785 280.183 227.35 280.002 227.008 279.697C226.666 279.392 226.436 278.982 226.354 278.532C225.76 275.238 224.498 267.492 224.754 262.371C224.78 261.842 224.989 261.339 225.347 260.948C225.704 260.557 226.186 260.303 226.711 260.229Z" fill="url(#paint36_linear_56_165)"/>
<path d="M254.956 280.084L253.667 279.999C253.626 279.996 253.587 279.976 253.56 279.945C253.532 279.913 253.519 279.872 253.521 279.831C253.526 279.79 253.546 279.752 253.577 279.725C253.608 279.698 253.648 279.684 253.689 279.685L254.948 279.772L255.621 279.682C255.642 279.679 255.663 279.68 255.684 279.685C255.704 279.69 255.723 279.7 255.74 279.713C255.756 279.726 255.77 279.742 255.78 279.76C255.79 279.779 255.796 279.799 255.798 279.82C255.803 279.861 255.791 279.903 255.765 279.936C255.74 279.969 255.702 279.991 255.66 279.996L254.956 280.084ZM250.743 279.796H250.732L249.475 279.71C249.433 279.706 249.395 279.687 249.367 279.656C249.339 279.624 249.325 279.583 249.328 279.542C249.332 279.501 249.352 279.463 249.383 279.436C249.414 279.409 249.454 279.395 249.496 279.396L250.754 279.483C250.796 279.484 250.835 279.502 250.863 279.532C250.892 279.563 250.907 279.603 250.905 279.645C250.904 279.687 250.886 279.726 250.856 279.754C250.825 279.783 250.785 279.798 250.743 279.796ZM258.56 279.623C258.518 279.626 258.477 279.612 258.446 279.584C258.414 279.557 258.395 279.518 258.392 279.476C258.389 279.435 258.403 279.394 258.431 279.362C258.458 279.331 258.497 279.312 258.539 279.309L259.79 279.149C259.811 279.146 259.832 279.146 259.853 279.152C259.874 279.157 259.893 279.166 259.909 279.179C259.926 279.192 259.94 279.208 259.95 279.227C259.96 279.246 259.965 279.266 259.967 279.287C259.972 279.329 259.96 279.371 259.934 279.404C259.908 279.437 259.871 279.458 259.829 279.463L258.578 279.623H258.56ZM246.551 279.507H246.54L245.281 279.421C245.24 279.417 245.201 279.398 245.174 279.367C245.146 279.335 245.133 279.294 245.135 279.253C245.139 279.212 245.159 279.174 245.19 279.146C245.222 279.119 245.262 279.105 245.303 279.107L246.562 279.194C246.603 279.195 246.643 279.213 246.671 279.243C246.7 279.274 246.715 279.314 246.713 279.356C246.712 279.398 246.694 279.437 246.663 279.465C246.633 279.494 246.592 279.509 246.551 279.507ZM242.358 279.218H242.347L241.089 279.132C241.068 279.13 241.048 279.125 241.03 279.116C241.011 279.106 240.995 279.094 240.981 279.078C240.967 279.062 240.957 279.044 240.951 279.025C240.944 279.005 240.941 278.984 240.943 278.964C240.946 278.922 240.966 278.884 240.997 278.857C241.029 278.829 241.07 278.815 241.111 278.818L242.368 278.904C242.41 278.906 242.449 278.924 242.478 278.954C242.506 278.984 242.521 279.025 242.52 279.066C242.519 279.108 242.501 279.147 242.471 279.176C242.44 279.204 242.4 279.22 242.358 279.218ZM262.729 279.09C262.687 279.093 262.646 279.079 262.614 279.052C262.583 279.024 262.564 278.985 262.561 278.944C262.558 278.902 262.572 278.861 262.6 278.83C262.627 278.798 262.666 278.779 262.708 278.776L263.208 278.713L263.897 278.486C263.917 278.478 263.939 278.474 263.961 278.474C263.983 278.474 264.004 278.479 264.024 278.488C264.044 278.498 264.062 278.511 264.076 278.527C264.091 278.543 264.102 278.562 264.109 278.583C264.116 278.604 264.118 278.626 264.116 278.648C264.114 278.669 264.107 278.69 264.096 278.71C264.086 278.729 264.071 278.745 264.054 278.758C264.036 278.772 264.016 278.781 263.995 278.786L263.277 279.019L262.746 279.089L262.729 279.09ZM238.165 278.929H238.154L236.902 278.845C236.86 278.842 236.821 278.823 236.794 278.792C236.766 278.76 236.752 278.719 236.755 278.677C236.76 278.637 236.78 278.6 236.811 278.573C236.842 278.546 236.882 278.531 236.923 278.532L238.181 278.618C238.223 278.62 238.262 278.638 238.291 278.668C238.319 278.699 238.334 278.739 238.333 278.781C238.331 278.822 238.313 278.862 238.283 278.89C238.252 278.918 238.212 278.933 238.17 278.932L238.165 278.929ZM233.972 278.64H233.961L232.703 278.554C232.682 278.552 232.662 278.547 232.644 278.537C232.625 278.528 232.609 278.516 232.595 278.5C232.581 278.484 232.571 278.466 232.565 278.447C232.558 278.427 232.555 278.406 232.557 278.386C232.561 278.345 232.581 278.307 232.612 278.28C232.644 278.253 232.684 278.238 232.725 278.24L233.982 278.326C234.024 278.328 234.063 278.345 234.092 278.376C234.12 278.406 234.136 278.447 234.134 278.488C234.133 278.53 234.115 278.569 234.085 278.598C234.054 278.626 234.014 278.642 233.972 278.64ZM229.779 278.351H229.768L228.509 278.264C228.468 278.261 228.429 278.242 228.402 278.21C228.374 278.179 228.361 278.138 228.363 278.097C228.37 278.056 228.39 278.02 228.421 277.993C228.451 277.966 228.491 277.95 228.531 277.949L229.79 278.037C229.831 278.039 229.871 278.057 229.899 278.087C229.928 278.118 229.943 278.158 229.941 278.2C229.94 278.241 229.922 278.281 229.891 278.309C229.861 278.338 229.82 278.353 229.779 278.351ZM266.746 277.885C266.713 277.884 266.68 277.874 266.653 277.854C266.626 277.835 266.606 277.807 266.596 277.776C266.589 277.756 266.587 277.736 266.588 277.715C266.59 277.694 266.595 277.674 266.605 277.656C266.614 277.638 266.627 277.621 266.643 277.608C266.658 277.594 266.677 277.584 266.696 277.578L267.897 277.188C267.936 277.176 267.979 277.18 268.016 277.199C268.053 277.218 268.081 277.251 268.095 277.29C268.108 277.33 268.104 277.373 268.085 277.41C268.066 277.447 268.033 277.475 267.993 277.488L266.794 277.876C266.778 277.881 266.761 277.883 266.744 277.882L266.746 277.885ZM270.742 276.587C270.705 276.587 270.668 276.574 270.639 276.55C270.61 276.525 270.591 276.492 270.585 276.454C270.579 276.417 270.587 276.379 270.607 276.347C270.627 276.315 270.658 276.291 270.694 276.28L271.893 275.89C271.933 275.878 271.976 275.882 272.013 275.901C272.05 275.92 272.078 275.953 272.092 275.992C272.098 276.012 272.101 276.032 272.099 276.053C272.097 276.074 272.092 276.094 272.083 276.112C272.073 276.131 272.06 276.147 272.045 276.16C272.029 276.174 272.011 276.184 271.991 276.19L270.792 276.58C270.775 276.583 270.758 276.584 270.741 276.583L270.742 276.587ZM227.962 275.44C227.924 275.44 227.888 275.426 227.859 275.4C227.831 275.375 227.813 275.34 227.808 275.303C227.744 274.905 227.68 274.488 227.616 274.056C227.61 274.014 227.621 273.972 227.645 273.939C227.67 273.905 227.707 273.883 227.749 273.877C227.79 273.871 227.832 273.881 227.866 273.906C227.899 273.931 227.922 273.968 227.928 274.009C227.993 274.441 228.056 274.857 228.118 275.248C228.121 275.269 228.12 275.29 228.115 275.31C228.11 275.331 228.101 275.35 228.088 275.367C228.075 275.384 228.059 275.398 228.04 275.408C228.022 275.419 228.001 275.426 227.98 275.428L227.962 275.44ZM274.74 275.29C274.703 275.29 274.667 275.277 274.638 275.252C274.61 275.228 274.591 275.194 274.585 275.157C274.579 275.12 274.586 275.082 274.606 275.05C274.625 275.018 274.655 274.994 274.691 274.982L275.89 274.594C275.91 274.585 275.932 274.581 275.954 274.582C275.975 274.582 275.997 274.587 276.017 274.596C276.037 274.605 276.055 274.618 276.069 274.635C276.084 274.651 276.095 274.67 276.101 274.691C276.108 274.712 276.111 274.734 276.108 274.755C276.106 274.777 276.1 274.798 276.089 274.817C276.078 274.836 276.064 274.853 276.046 274.866C276.029 274.879 276.009 274.889 275.988 274.894L274.789 275.282C274.772 275.286 274.756 275.287 274.739 275.286L274.74 275.29ZM278.737 273.992C278.699 273.993 278.662 273.98 278.634 273.955C278.605 273.931 278.585 273.897 278.58 273.86C278.574 273.822 278.582 273.784 278.602 273.752C278.622 273.72 278.653 273.696 278.689 273.685L279.888 273.296C279.928 273.284 279.971 273.288 280.007 273.307C280.044 273.326 280.073 273.359 280.086 273.398C280.093 273.417 280.095 273.438 280.094 273.459C280.092 273.479 280.086 273.499 280.077 273.518C280.068 273.536 280.055 273.553 280.039 273.566C280.023 273.579 280.005 273.59 279.986 273.596L278.787 273.985C278.77 273.988 278.753 273.989 278.736 273.988L278.737 273.992ZM282.734 272.694C282.696 272.695 282.659 272.683 282.629 272.658C282.6 272.634 282.581 272.6 282.575 272.563C282.569 272.525 282.576 272.487 282.597 272.455C282.617 272.422 282.648 272.399 282.684 272.388L283.883 271.999C283.903 271.993 283.923 271.991 283.944 271.992C283.965 271.994 283.985 271.999 284.003 272.009C284.021 272.018 284.038 272.031 284.051 272.046C284.065 272.062 284.075 272.08 284.081 272.1C284.088 272.12 284.09 272.14 284.089 272.161C284.087 272.181 284.082 272.201 284.072 272.22C284.063 272.238 284.05 272.255 284.034 272.268C284.019 272.281 284 272.292 283.981 272.298L282.782 272.688C282.766 272.69 282.75 272.691 282.734 272.69V272.694ZM286.73 271.398C286.697 271.398 286.664 271.387 286.637 271.367C286.61 271.348 286.59 271.32 286.58 271.288C286.571 271.26 286.57 271.231 286.577 271.202C286.584 271.174 286.599 271.148 286.62 271.128C286.58 270.769 286.534 270.41 286.482 270.053C286.479 270.033 286.481 270.012 286.486 269.991C286.492 269.971 286.501 269.952 286.514 269.936C286.527 269.919 286.543 269.906 286.561 269.895C286.579 269.885 286.599 269.878 286.62 269.876C286.641 269.873 286.662 269.874 286.682 269.88C286.702 269.885 286.721 269.894 286.737 269.907C286.754 269.92 286.768 269.936 286.778 269.954C286.788 269.973 286.794 269.993 286.796 270.013C286.85 270.411 286.9 270.809 286.942 271.207L286.956 271.335L286.776 271.392C286.761 271.395 286.745 271.396 286.73 271.394V271.398ZM227.375 271.281C227.337 271.281 227.3 271.267 227.271 271.241C227.242 271.216 227.223 271.181 227.218 271.143C227.168 270.73 227.12 270.318 227.08 269.891C227.076 269.85 227.087 269.808 227.113 269.776C227.139 269.743 227.177 269.722 227.218 269.717C227.259 269.713 227.301 269.725 227.334 269.75C227.367 269.776 227.388 269.814 227.393 269.855C227.437 270.268 227.487 270.692 227.531 271.105C227.533 271.125 227.532 271.146 227.526 271.166C227.521 271.186 227.511 271.205 227.498 271.221C227.486 271.237 227.47 271.251 227.452 271.261C227.434 271.271 227.414 271.277 227.393 271.28L227.375 271.281ZM286.168 267.29C286.131 267.29 286.096 267.277 286.068 267.253C286.039 267.23 286.02 267.198 286.014 267.162C285.934 266.749 285.851 266.336 285.766 265.93C285.761 265.91 285.761 265.889 285.765 265.869C285.768 265.848 285.776 265.829 285.787 265.812C285.798 265.794 285.813 265.779 285.83 265.768C285.847 265.756 285.866 265.748 285.886 265.743C285.906 265.739 285.927 265.739 285.947 265.742C285.968 265.746 285.987 265.754 286.004 265.765C286.022 265.776 286.037 265.791 286.049 265.808C286.06 265.824 286.069 265.844 286.073 265.864C286.16 266.277 286.244 266.69 286.322 267.102C286.326 267.123 286.326 267.144 286.322 267.164C286.318 267.184 286.31 267.203 286.298 267.22C286.286 267.237 286.271 267.252 286.254 267.263C286.237 267.274 286.217 267.282 286.197 267.285L286.168 267.29ZM226.966 267.102C226.926 267.102 226.887 267.087 226.858 267.06C226.829 267.032 226.811 266.995 226.809 266.955C226.778 266.53 226.754 266.11 226.736 265.693C226.735 265.673 226.738 265.652 226.744 265.633C226.751 265.613 226.762 265.595 226.776 265.58C226.79 265.565 226.806 265.553 226.825 265.544C226.844 265.535 226.864 265.53 226.885 265.529C226.906 265.526 226.927 265.528 226.947 265.535C226.968 265.541 226.986 265.552 227.002 265.566C227.018 265.58 227.03 265.598 227.039 265.617C227.047 265.637 227.051 265.658 227.05 265.679C227.068 266.092 227.093 266.505 227.123 266.933C227.124 266.954 227.122 266.975 227.115 266.994C227.109 267.014 227.098 267.032 227.084 267.048C227.071 267.064 227.054 267.076 227.035 267.085C227.017 267.094 226.996 267.1 226.975 267.101L226.966 267.102ZM285.249 263.192C285.214 263.192 285.18 263.18 285.152 263.159C285.125 263.137 285.105 263.108 285.096 263.074C284.99 262.661 284.882 262.248 284.775 261.859C284.764 261.818 284.769 261.775 284.79 261.739C284.81 261.703 284.845 261.676 284.885 261.665C284.905 261.659 284.926 261.657 284.946 261.659C284.967 261.662 284.987 261.668 285.005 261.679C285.023 261.689 285.039 261.703 285.051 261.719C285.064 261.736 285.073 261.755 285.078 261.775C285.186 262.171 285.294 262.578 285.402 262.995C285.407 263.015 285.408 263.036 285.405 263.057C285.402 263.077 285.395 263.097 285.385 263.115C285.374 263.132 285.361 263.148 285.344 263.16C285.328 263.173 285.309 263.182 285.289 263.187C285.275 263.189 285.262 263.189 285.249 263.188V263.192ZM226.867 262.906C226.846 262.905 226.826 262.901 226.807 262.892C226.788 262.884 226.771 262.872 226.757 262.857C226.743 262.841 226.732 262.824 226.724 262.804C226.717 262.785 226.714 262.764 226.715 262.744L226.726 262.468C226.729 262.397 226.758 262.328 226.806 262.275C226.854 262.222 226.919 262.187 226.991 262.177L227.767 262.066C227.787 262.063 227.809 262.064 227.829 262.069C227.85 262.074 227.869 262.083 227.886 262.096C227.902 262.109 227.916 262.126 227.926 262.144C227.936 262.163 227.943 262.183 227.944 262.204C227.947 262.225 227.946 262.246 227.94 262.266C227.935 262.286 227.925 262.305 227.912 262.321C227.9 262.338 227.884 262.352 227.865 262.362C227.847 262.372 227.827 262.379 227.806 262.382L227.031 262.49V262.752C227.03 262.772 227.025 262.793 227.016 262.811C227.007 262.83 226.995 262.847 226.98 262.861C226.965 262.875 226.947 262.886 226.927 262.893C226.908 262.9 226.887 262.903 226.867 262.902V262.906ZM230.699 261.98C230.66 261.978 230.623 261.962 230.595 261.935C230.567 261.908 230.55 261.871 230.548 261.833C230.545 261.794 230.557 261.755 230.581 261.725C230.604 261.694 230.639 261.673 230.677 261.666L231.927 261.494C231.948 261.49 231.969 261.491 231.99 261.496C232.01 261.502 232.03 261.511 232.046 261.524C232.063 261.537 232.077 261.553 232.087 261.571C232.097 261.59 232.103 261.61 232.105 261.632C232.11 261.673 232.098 261.715 232.072 261.748C232.047 261.781 232.009 261.803 231.967 261.808L230.717 261.981L230.699 261.98ZM234.864 261.409C234.826 261.408 234.789 261.394 234.76 261.369C234.732 261.343 234.713 261.309 234.708 261.271C234.705 261.25 234.707 261.229 234.712 261.209C234.717 261.189 234.727 261.17 234.74 261.153C234.752 261.137 234.769 261.123 234.787 261.112C234.805 261.102 234.825 261.096 234.846 261.093L236.096 260.923C236.117 260.92 236.137 260.921 236.157 260.927C236.177 260.932 236.196 260.941 236.213 260.954C236.229 260.966 236.243 260.982 236.253 261C236.264 261.018 236.27 261.038 236.273 261.058C236.276 261.079 236.274 261.1 236.269 261.12C236.264 261.14 236.254 261.158 236.242 261.175C236.229 261.191 236.214 261.205 236.196 261.215C236.178 261.226 236.158 261.232 236.137 261.235L234.889 261.404L234.864 261.409ZM239.031 260.847C238.99 260.85 238.949 260.836 238.917 260.808C238.886 260.781 238.867 260.742 238.864 260.7C238.861 260.659 238.875 260.618 238.903 260.586C238.93 260.555 238.969 260.536 239.011 260.533L240.261 260.367C240.302 260.362 240.344 260.374 240.378 260.399C240.411 260.425 240.433 260.463 240.439 260.504C240.444 260.546 240.432 260.588 240.406 260.621C240.38 260.655 240.342 260.676 240.301 260.682L239.051 260.848L239.031 260.847ZM243.199 260.296C243.157 260.299 243.116 260.285 243.085 260.258C243.053 260.23 243.034 260.191 243.031 260.15C243.029 260.108 243.043 260.067 243.07 260.036C243.098 260.005 243.137 259.985 243.178 259.983L244.428 259.819C244.449 259.816 244.47 259.817 244.491 259.822C244.511 259.828 244.53 259.837 244.547 259.85C244.563 259.863 244.577 259.879 244.587 259.897C244.597 259.915 244.604 259.936 244.606 259.956C244.611 259.998 244.599 260.04 244.574 260.073C244.548 260.106 244.51 260.128 244.468 260.133L243.218 260.296H243.199ZM247.368 259.756C247.326 259.758 247.285 259.744 247.254 259.716C247.223 259.689 247.204 259.65 247.201 259.608C247.198 259.567 247.213 259.526 247.24 259.495C247.268 259.463 247.307 259.444 247.349 259.442L248.6 259.281C248.62 259.278 248.642 259.279 248.662 259.284C248.682 259.289 248.701 259.299 248.717 259.312C248.734 259.325 248.747 259.341 248.757 259.359C248.767 259.377 248.773 259.398 248.775 259.418C248.78 259.46 248.768 259.502 248.742 259.535C248.717 259.568 248.679 259.589 248.637 259.595L247.387 259.756H247.368ZM251.566 259.222L251.526 258.909L252.766 258.754C252.787 258.751 252.808 258.752 252.828 258.757C252.848 258.763 252.867 258.772 252.883 258.785C252.9 258.798 252.914 258.814 252.924 258.832C252.934 258.85 252.94 258.87 252.942 258.891C252.947 258.933 252.936 258.975 252.91 259.008C252.884 259.041 252.846 259.062 252.805 259.067L251.566 259.222ZM284.099 259.155C284.066 259.155 284.033 259.145 284.006 259.125C283.979 259.105 283.958 259.077 283.948 259.045C283.81 258.619 283.686 258.22 283.563 257.848C283.557 257.828 283.554 257.808 283.556 257.787C283.558 257.767 283.563 257.746 283.572 257.728C283.582 257.71 283.595 257.693 283.61 257.68C283.626 257.666 283.644 257.656 283.664 257.65C283.684 257.643 283.704 257.641 283.725 257.642C283.745 257.644 283.766 257.65 283.784 257.659C283.802 257.668 283.819 257.681 283.832 257.697C283.846 257.712 283.856 257.731 283.862 257.75C283.985 258.12 284.115 258.522 284.25 258.952C284.256 258.971 284.258 258.992 284.256 259.013C284.254 259.033 284.248 259.053 284.239 259.072C284.229 259.09 284.216 259.106 284.2 259.119C284.184 259.133 284.166 259.142 284.146 259.149C284.131 259.151 284.115 259.151 284.099 259.149V259.155ZM255.71 258.708C255.668 258.711 255.627 258.697 255.596 258.669C255.564 258.641 255.545 258.603 255.543 258.561C255.54 258.519 255.554 258.478 255.582 258.447C255.61 258.416 255.649 258.397 255.69 258.394L256.942 258.243C256.983 258.239 257.025 258.251 257.057 258.276C257.09 258.302 257.111 258.339 257.117 258.381C257.119 258.401 257.118 258.422 257.112 258.442C257.107 258.462 257.098 258.481 257.085 258.497C257.072 258.513 257.056 258.527 257.038 258.537C257.02 258.547 257 258.553 256.979 258.555L255.729 258.708H255.71ZM259.881 258.207C259.84 258.21 259.799 258.195 259.768 258.168C259.736 258.14 259.718 258.101 259.715 258.059C259.713 258.018 259.727 257.977 259.755 257.946C259.783 257.915 259.822 257.896 259.863 257.893L261.116 257.747C261.137 257.745 261.158 257.746 261.178 257.751C261.198 257.757 261.216 257.766 261.233 257.779C261.249 257.792 261.262 257.808 261.272 257.826C261.282 257.844 261.288 257.864 261.29 257.885C261.292 257.906 261.291 257.927 261.286 257.947C261.28 257.967 261.271 257.985 261.258 258.001C261.245 258.018 261.229 258.031 261.211 258.041C261.193 258.051 261.173 258.058 261.152 258.06L259.899 258.206L259.881 258.207ZM264.057 257.727C264.015 257.729 263.975 257.715 263.944 257.687C263.913 257.659 263.894 257.62 263.892 257.578C263.89 257.537 263.904 257.496 263.932 257.465C263.96 257.434 263.999 257.415 264.041 257.413L265.293 257.275C265.334 257.271 265.375 257.284 265.408 257.309C265.44 257.335 265.461 257.372 265.467 257.413C265.472 257.454 265.46 257.496 265.434 257.529C265.408 257.561 265.37 257.583 265.329 257.588L264.076 257.725L264.057 257.727ZM268.236 257.271C268.196 257.27 268.158 257.254 268.129 257.226C268.1 257.199 268.083 257.161 268.081 257.121C268.079 257.082 268.092 257.042 268.118 257.012C268.143 256.981 268.179 256.961 268.219 256.956L269.473 256.827C269.494 256.825 269.514 256.826 269.534 256.832C269.554 256.838 269.573 256.848 269.589 256.861C269.605 256.874 269.618 256.89 269.628 256.908C269.638 256.926 269.644 256.946 269.646 256.966C269.648 256.987 269.646 257.008 269.641 257.027C269.635 257.047 269.625 257.066 269.612 257.082C269.599 257.098 269.583 257.111 269.565 257.121C269.547 257.131 269.527 257.137 269.506 257.139L268.252 257.277L268.236 257.271ZM272.418 256.85C272.398 256.851 272.377 256.848 272.358 256.841C272.338 256.834 272.32 256.823 272.305 256.81C272.29 256.796 272.277 256.779 272.268 256.76C272.26 256.742 272.255 256.721 272.254 256.701C272.253 256.68 272.256 256.66 272.263 256.64C272.27 256.621 272.28 256.603 272.294 256.588C272.308 256.572 272.325 256.56 272.344 256.551C272.362 256.542 272.382 256.537 272.403 256.536L273.659 256.418C273.679 256.415 273.7 256.417 273.719 256.423C273.739 256.428 273.758 256.438 273.774 256.451C273.79 256.463 273.803 256.479 273.813 256.497C273.823 256.515 273.829 256.535 273.831 256.556C273.835 256.596 273.822 256.637 273.797 256.669C273.771 256.701 273.734 256.721 273.693 256.726L272.438 256.843L272.418 256.85ZM276.605 256.478C276.563 256.48 276.523 256.465 276.492 256.437C276.462 256.409 276.443 256.369 276.442 256.328C276.44 256.286 276.455 256.246 276.483 256.215C276.512 256.184 276.551 256.166 276.593 256.165C277.027 256.129 277.447 256.097 277.851 256.068C277.891 256.065 277.932 256.077 277.963 256.103C277.994 256.129 278.014 256.166 278.019 256.206C278.022 256.246 278.01 256.287 277.984 256.318C277.958 256.35 277.922 256.37 277.881 256.375C277.476 256.404 277.054 256.437 276.624 256.472L276.605 256.478ZM280.799 256.203C280.758 256.203 280.719 256.188 280.69 256.16C280.661 256.132 280.643 256.094 280.642 256.053C280.64 256.033 280.643 256.012 280.65 255.993C280.657 255.973 280.667 255.955 280.681 255.94C280.695 255.925 280.712 255.912 280.731 255.904C280.75 255.895 280.77 255.89 280.79 255.889C281.241 255.867 281.663 255.851 282.053 255.839C282.092 255.842 282.129 255.86 282.155 255.89C282.182 255.919 282.197 255.957 282.197 255.996C282.197 256.036 282.182 256.074 282.155 256.103C282.129 256.132 282.092 256.15 282.053 256.154C281.664 256.165 281.245 256.181 280.796 256.203H280.799Z" fill="white"/>
<path d="M263.343 284.699L255.724 285.672C255.242 285.735 254.754 285.619 254.353 285.347C253.951 285.075 253.663 284.665 253.543 284.195L251.726 276.985C251.657 276.713 251.648 276.43 251.697 276.154C251.747 275.879 251.855 275.617 252.013 275.386C252.172 275.155 252.378 274.96 252.617 274.815C252.857 274.669 253.124 274.576 253.403 274.542L262.556 273.372C262.829 273.336 263.107 273.357 263.371 273.434C263.635 273.512 263.88 273.643 264.091 273.82C264.301 273.997 264.472 274.216 264.594 274.462C264.715 274.709 264.783 274.978 264.794 275.253L265.08 282.661C265.097 283.155 264.929 283.639 264.608 284.016C264.286 284.393 263.835 284.637 263.343 284.699Z" fill="url(#paint37_linear_56_165)"/>
<path d="M262.234 283.471L256.435 284.213C256.069 284.258 255.7 284.169 255.396 283.962C255.091 283.755 254.873 283.445 254.781 283.089L253.403 277.6C253.352 277.393 253.346 277.178 253.385 276.969C253.423 276.759 253.505 276.561 253.626 276.385C253.746 276.21 253.902 276.062 254.084 275.95C254.266 275.839 254.469 275.768 254.68 275.74L261.648 274.85C261.856 274.823 262.067 274.839 262.268 274.898C262.469 274.957 262.655 275.057 262.815 275.192C262.976 275.326 263.106 275.493 263.198 275.681C263.29 275.869 263.342 276.074 263.35 276.283L263.567 281.926C263.577 282.303 263.446 282.67 263.2 282.956C262.953 283.242 262.609 283.426 262.234 283.471Z" fill="url(#paint38_linear_56_165)"/>
<path d="M257.701 225.112C259.493 232.53 259.546 239.786 259.274 242.429C259.223 242.911 259.004 243.359 258.656 243.696C258.307 244.033 257.851 244.237 257.368 244.272C256.232 244.352 254.686 244.456 253.303 244.535C251.788 244.623 250.098 243.663 248.971 242.862C248.847 242.775 248.698 242.731 248.547 242.737C248.395 242.744 248.25 242.801 248.135 242.9C248.02 242.998 247.942 243.133 247.912 243.281C247.882 243.429 247.903 243.583 247.971 243.718C248.523 244.802 249.487 245.654 250.442 246.378C251.017 246.814 252.923 247.589 252.785 248.442C252.726 248.711 252.594 248.959 252.405 249.159C251.344 250.431 249.738 251.111 248.155 251.595C247.95 251.637 247.76 251.732 247.604 251.871C247.565 252.895 250.717 254.031 251.53 254.301C252.748 254.715 254.04 254.865 255.321 254.742C258.491 254.407 261.421 252.221 263.128 249.586C267.695 242.539 270.056 234.033 270.919 227.523C266.68 223.291 260.266 224.366 257.701 225.112Z" fill="url(#paint39_linear_56_165)"/>
<path d="M270.927 228.196C274.315 202.64 254.593 182.989 254.593 182.989L242.861 196.651C251.77 207.738 256.003 217.9 257.938 225.88C260.503 225.139 266.68 223.961 270.927 228.196Z" fill="url(#paint40_linear_56_165)"/>
<path d="M257.658 225.76C257.496 225.76 257.338 225.706 257.21 225.606C257.082 225.507 256.991 225.367 256.951 225.21C254.569 215.371 249.543 205.633 242.015 196.262C241.955 196.188 241.911 196.103 241.884 196.011C241.858 195.92 241.849 195.824 241.86 195.729C241.87 195.635 241.899 195.543 241.945 195.459C241.991 195.376 242.052 195.302 242.127 195.243C242.201 195.183 242.287 195.139 242.378 195.112C242.47 195.085 242.566 195.077 242.661 195.087C242.755 195.097 242.847 195.126 242.931 195.172C243.015 195.218 243.088 195.28 243.148 195.354C250.81 204.892 255.93 214.822 258.365 224.868C258.392 224.975 258.394 225.086 258.37 225.194C258.347 225.302 258.3 225.402 258.231 225.489C258.163 225.575 258.076 225.645 257.977 225.693C257.878 225.74 257.769 225.765 257.658 225.764V225.76Z" fill="url(#paint41_linear_56_165)"/>
<path d="M98.7548 377.263C98.7582 377.136 98.7453 377.008 98.7162 376.884C96.8295 369.414 87.4637 364.759 87.4637 364.759L83.7523 365.051C81.619 371.635 81.8932 375.673 82.2364 377.472C82.246 377.523 82.2612 377.571 82.275 377.619C85.3344 377.893 91.6367 378.071 98.7548 377.263Z" fill="url(#paint42_linear_56_165)"/>
<path d="M82.275 377.619C82.343 377.906 82.489 378.169 82.6969 378.379C82.9048 378.588 83.1665 378.736 83.4533 378.807C87.8083 379.722 94.7293 378.986 97.6358 378.606C98.2766 378.524 98.7383 377.93 98.7562 377.263C91.6367 378.071 85.3345 377.893 82.275 377.619Z" fill="url(#paint43_linear_56_165)"/>
<path d="M82.2598 359.529L83.8322 367.086C83.8771 367.346 84.0038 367.585 84.1939 367.768C84.384 367.951 84.6276 368.068 84.8893 368.103C85.6997 368.185 86.5169 368.172 87.3244 368.065C88.1348 367.945 88.7026 367.122 88.5565 366.24L87.4636 359.529H82.2598Z" fill="url(#paint44_linear_56_165)"/>
<path d="M114.828 377.528C110.729 377.414 108.608 376.931 107.513 376.484C107.513 376.897 107.513 377.31 107.525 377.735C107.521 377.946 107.599 378.151 107.743 378.305C107.888 378.459 108.087 378.551 108.298 378.561L130.803 378.416C131.521 378.416 131.942 377.579 131.63 376.921C128.68 377.157 121.163 377.702 114.828 377.528Z" fill="url(#paint45_linear_56_165)"/>
<path d="M131.63 376.913C131.606 376.854 131.576 376.798 131.541 376.744C129.553 373.971 124.491 368.447 114.489 366.053L109.69 365.901C109.69 365.901 107.553 369.61 107.513 376.48C108.615 376.927 110.729 377.41 114.828 377.524C121.163 377.702 128.68 377.157 131.63 376.913Z" fill="url(#paint46_linear_56_165)"/>
<path d="M108.586 358.861C108.662 359.214 109.66 364.591 110.047 366.676C110.082 366.907 110.193 367.12 110.363 367.281C110.533 367.441 110.753 367.54 110.986 367.561C111.813 367.606 113.133 367.612 114.273 367.302C114.887 367.136 115.299 366.51 115.257 365.816L114.719 357.31L108.586 358.861Z" fill="url(#paint47_linear_56_165)"/>
<path d="M104.951 259.577C104.951 259.577 111.551 304.877 116.315 358.783C116.403 359.788 115.603 360.661 114.616 360.869C113.16 361.175 111.02 361.538 109.249 361.489C108.791 361.474 108.353 361.301 108.008 361C107.662 360.699 107.432 360.288 107.356 359.837C105.732 350.332 94.1518 299.322 91.113 288.096C91.113 288.096 87.6222 335.784 88.7385 360.525C88.7524 360.822 88.6531 361.112 88.4608 361.339C88.2685 361.565 87.9973 361.71 87.7021 361.745C86.27 361.898 84.8253 361.894 83.3941 361.732C83.0455 361.698 82.7184 361.548 82.465 361.307C82.2115 361.065 82.0461 360.746 81.9952 360.4C80.839 352.357 74.1853 304.477 74.4678 269.986C74.4844 268.04 76.7528 252.059 76.7528 252.059L104.951 259.577Z" fill="url(#paint48_linear_56_165)"/>
<path d="M75.7619 262.192C75.4296 262.072 75.1381 261.861 74.921 261.583C74.7039 261.305 74.5702 260.971 74.5354 260.62C73.6575 252.115 69.4073 199.38 96.2397 177.686C96.2397 177.686 97.7791 173.666 110.428 183.549C123.076 193.433 116.304 203.792 113.276 218.081C109.612 235.372 103.181 249.506 106.027 260.146C106.124 260.501 106.084 260.878 105.917 261.205C105.749 261.532 105.466 261.785 105.122 261.915C95.297 265.528 85.5095 265.648 75.7619 262.192Z" fill="url(#paint49_linear_56_165)"/>
<path d="M106.707 161.883C106.698 162.633 95.9833 177.832 95.9833 177.832C95.9833 177.832 97.9127 181.616 107.088 184.686L115.014 168.412L106.707 161.883Z" fill="url(#paint50_linear_56_165)"/>
<path d="M115.142 153.174C115.142 153.174 118.956 161.92 119.212 166.51C119.468 171.1 120.452 174.08 115.142 175.005C109.832 175.93 105.357 173.285 102.925 168.712C102.925 168.712 99.1241 161.666 99.9772 158.781C100.83 155.896 115.142 153.174 115.142 153.174Z" fill="url(#paint51_linear_56_165)"/>
<path d="M104.739 165.424L105.04 165.287C105.132 165.247 105.214 165.189 105.282 165.116C105.35 165.043 105.402 164.957 105.436 164.864C105.469 164.77 105.483 164.67 105.477 164.571C105.47 164.472 105.443 164.375 105.397 164.286C104.648 162.84 103.192 159.525 105.075 158.753C107.507 157.757 117.142 155.794 119.222 152.379C121.22 149.098 119.449 144.862 116.789 143.656C116.704 143.616 116.607 143.61 116.518 143.639C116.429 143.668 116.354 143.731 116.31 143.813L116.088 144.226C116.054 144.29 116.002 144.342 115.939 144.376C115.875 144.411 115.803 144.425 115.731 144.418C115.659 144.411 115.592 144.382 115.536 144.336C115.481 144.29 115.441 144.228 115.421 144.159C115.402 144.092 115.364 144.032 115.311 143.986C115.259 143.94 115.195 143.911 115.126 143.901C115.057 143.891 114.987 143.901 114.924 143.93C114.86 143.959 114.807 144.006 114.77 144.065C114.132 145.086 112.407 146.743 107.793 147.593C101.235 148.801 96.9053 151.446 96.7923 155.977C96.7914 156.042 96.7732 156.105 96.7396 156.16C96.706 156.215 96.6582 156.26 96.6012 156.291C96.5442 156.321 96.48 156.335 96.4155 156.333C96.3509 156.33 96.2883 156.31 96.2341 156.274C95.749 155.98 94.9745 155.841 93.9395 156.711C92.1383 158.225 92.8756 162.146 96.8226 165.372C96.8673 165.407 96.9031 165.451 96.9272 165.502C96.9514 165.553 96.9631 165.609 96.9615 165.665C96.9599 165.722 96.945 165.777 96.918 165.826C96.8909 165.876 96.8526 165.918 96.8061 165.95C96.0908 166.415 95.0241 167.522 97.7887 168.999C100.647 170.525 102.782 170.4 103.604 170.264C103.653 170.256 103.699 170.238 103.74 170.211C103.781 170.185 103.817 170.15 103.844 170.11C103.872 170.069 103.89 170.023 103.899 169.975C103.908 169.927 103.907 169.878 103.897 169.83L103.019 165.852C103.007 165.8 103.008 165.745 103.02 165.693C103.032 165.64 103.056 165.591 103.09 165.549C103.124 165.507 103.167 165.473 103.216 165.45C103.264 165.427 103.318 165.415 103.372 165.415L104.739 165.424Z" fill="url(#paint52_linear_56_165)"/>
<path d="M104.905 166.261C104.905 166.261 103.451 160.673 100.943 162.241C98.435 163.809 102.246 168.5 104.262 168.71L104.905 166.261Z" fill="url(#paint53_linear_56_165)"/>
<path d="M114.496 188.133L115.235 207.952C117.2 208.632 119.203 209.2 121.234 209.653C122.423 205.827 125.043 201.131 127.189 197.64C119.306 194.853 114.496 188.133 114.496 188.133Z" fill="url(#paint54_linear_56_165)"/>
<path d="M153.85 187.797C143.037 199.456 134.28 200.141 127.189 197.636C125.043 201.126 122.423 205.822 121.234 209.649C150.108 216.006 156.908 189.495 156.908 189.495L153.85 187.797Z" fill="url(#paint55_linear_56_165)"/>
<path d="M156.043 186.558C156.043 186.558 157.283 185.222 159.594 185.641C161.905 186.061 163.95 186.861 165.382 185.641C166.814 184.422 167.324 186.054 167.324 186.054L163.034 189.324L156.043 186.558Z" fill="url(#paint56_linear_56_165)"/>
<path d="M153.471 188.841C153.471 188.841 154.324 185.278 156.896 185.765C159.467 186.252 165.302 189.425 166.818 188.841C168.334 188.258 170.247 186.859 171.228 187.353L169.489 189.512C169.489 189.512 173.96 186.936 174.726 188.519L167.284 192.699C167.284 192.699 156.408 191.61 153.471 188.841Z" fill="url(#paint57_linear_56_165)"/>
<path d="M102.494 214.065C102.494 214.065 122.821 231.069 144.772 223.65C145.444 223.419 146.156 223.327 146.865 223.381C147.574 223.434 148.264 223.631 148.894 223.96L155.205 227.288C156.48 227.961 157.965 228.119 159.355 227.731C160.744 227.343 161.931 226.437 162.671 225.201C163.548 223.736 164.296 222.063 164.445 220.46L152.096 215.468L153.007 213.954C153.007 213.954 146.977 213.445 145.399 217.759C145.399 217.759 133.917 222.53 114.55 201.256C114.55 201.257 105.761 208.72 102.494 214.065Z" fill="url(#paint58_linear_56_165)"/>
<path d="M101.399 213.891C101.33 213.891 101.262 213.87 101.205 213.83C92.6454 208.049 88.6185 198.733 88.5785 198.639C88.5605 198.597 88.5508 198.552 88.5502 198.506C88.5496 198.461 88.558 198.415 88.5749 198.373C88.5919 198.33 88.6171 198.292 88.649 198.259C88.681 198.226 88.7191 198.2 88.7612 198.182C88.8032 198.164 88.8485 198.154 88.8943 198.153C88.9401 198.153 88.9855 198.161 89.0281 198.178C89.0706 198.195 89.1094 198.22 89.1423 198.252C89.1751 198.284 89.2013 198.322 89.2194 198.364C89.258 198.456 93.216 207.594 101.594 213.252C101.655 213.294 101.702 213.354 101.726 213.424C101.751 213.494 101.752 213.57 101.731 213.641C101.709 213.712 101.665 213.774 101.606 213.819C101.546 213.863 101.474 213.887 101.399 213.888V213.891Z" fill="url(#paint59_linear_56_165)"/>
<path d="M114.149 200.97C114.09 200.969 114.033 200.955 113.981 200.927C113.93 200.899 113.887 200.859 113.855 200.81C113.83 200.77 111.214 196.704 106.234 187.798C104.703 185.059 102.689 183.325 100.251 182.644C96.2134 181.516 92.3229 183.679 92.2844 183.701C92.2046 183.74 92.1127 183.748 92.0275 183.722C91.9423 183.696 91.8703 183.638 91.8262 183.561C91.7821 183.484 91.7693 183.393 91.7905 183.306C91.8116 183.22 91.865 183.145 91.9398 183.096C92.108 183.001 96.1101 180.765 100.433 181.973C103.052 182.704 105.215 184.55 106.842 187.458C111.803 196.342 114.421 200.396 114.441 200.434C114.474 200.487 114.493 200.547 114.495 200.609C114.497 200.672 114.483 200.733 114.453 200.788C114.423 200.843 114.379 200.888 114.326 200.92C114.272 200.952 114.211 200.969 114.149 200.97Z" fill="url(#paint60_linear_56_165)"/>
</g>
<defs>
<linearGradient id="paint0_linear_56_165" x1="402.614" y1="418.902" x2="147.054" y2="146.498" gradientUnits="userSpaceOnUse">
<stop stop-color="#DAE3FE"/>
<stop offset="1" stop-color="#E9EFFD"/>
</linearGradient>
<linearGradient id="paint1_linear_56_165" x1="268.066" y1="233.546" x2="350.195" y2="233.546" gradientUnits="userSpaceOnUse">
<stop stop-color="#4F52FF"/>
<stop offset="1" stop-color="#4042E2"/>
</linearGradient>
<linearGradient id="paint2_linear_56_165" x1="276.208" y1="290.729" x2="324.624" y2="290.729" gradientUnits="userSpaceOnUse">
<stop stop-color="#DAE3FE"/>
<stop offset="1" stop-color="#E9EFFD"/>
</linearGradient>
<linearGradient id="paint3_linear_56_165" x1="279.415" y1="108.441" x2="162.575" y2="-134.747" gradientUnits="userSpaceOnUse">
<stop stop-color="#4042E2"/>
<stop offset="1" stop-color="#4F52FF"/>
</linearGradient>
<linearGradient id="paint4_linear_56_165" x1="219.396" y1="89.6709" x2="-92.1569" y2="488.885" gradientUnits="userSpaceOnUse">
<stop stop-color="white"/>
<stop offset="1" stop-color="white"/>
</linearGradient>
<linearGradient id="paint5_linear_56_165" x1="34.7223" y1="141.33" x2="67.121" y2="141.33" gradientUnits="userSpaceOnUse">
<stop stop-color="#DAE3FE"/>
<stop offset="1" stop-color="#E9EFFD"/>
</linearGradient>
<linearGradient id="paint6_linear_56_165" x1="76.6329" y1="127.268" x2="213.918" y2="127.268" gradientUnits="userSpaceOnUse">
<stop stop-color="#DAE3FE"/>
<stop offset="1" stop-color="#E9EFFD"/>
</linearGradient>
<linearGradient id="paint7_linear_56_165" x1="79.1493" y1="149.279" x2="171.299" y2="149.279" gradientUnits="userSpaceOnUse">
<stop stop-color="#DAE3FE"/>
<stop offset="1" stop-color="#E9EFFD"/>
</linearGradient>
<linearGradient id="paint8_linear_56_165" x1="34.7223" y1="204.249" x2="67.121" y2="204.249" gradientUnits="userSpaceOnUse">
<stop stop-color="#DAE3FE"/>
<stop offset="1" stop-color="#E9EFFD"/>
</linearGradient>
<linearGradient id="paint9_linear_56_165" x1="76.6328" y1="190.186" x2="213.918" y2="190.186" gradientUnits="userSpaceOnUse">
<stop stop-color="#DAE3FE"/>
<stop offset="1" stop-color="#E9EFFD"/>
</linearGradient>
<linearGradient id="paint10_linear_56_165" x1="34.7223" y1="267.167" x2="67.121" y2="267.167" gradientUnits="userSpaceOnUse">
<stop stop-color="#DAE3FE"/>
<stop offset="1" stop-color="#E9EFFD"/>
</linearGradient>
<linearGradient id="paint11_linear_56_165" x1="76.6329" y1="253.105" x2="213.918" y2="253.105" gradientUnits="userSpaceOnUse">
<stop stop-color="#DAE3FE"/>
<stop offset="1" stop-color="#E9EFFD"/>
</linearGradient>
<linearGradient id="paint12_linear_56_165" x1="79.1494" y1="275.114" x2="171.299" y2="275.114" gradientUnits="userSpaceOnUse">
<stop stop-color="#DAE3FE"/>
<stop offset="1" stop-color="#E9EFFD"/>
</linearGradient>
<linearGradient id="paint13_linear_56_165" x1="187.562" y1="253.603" x2="144.527" y2="363.931" gradientUnits="userSpaceOnUse">
<stop stop-color="#09005D"/>
<stop offset="1" stop-color="#1A0F91"/>
</linearGradient>
<linearGradient id="paint14_linear_56_165" x1="155.895" y1="222.843" x2="148.211" y2="224.352" gradientUnits="userSpaceOnUse">
<stop stop-color="#FEBBBA"/>
<stop offset="1" stop-color="#FF928E"/>
</linearGradient>
<linearGradient id="paint15_linear_56_165" x1="149.539" y1="215.12" x2="185.194" y2="215.12" gradientUnits="userSpaceOnUse">
<stop stop-color="#FEBBBA"/>
<stop offset="1" stop-color="#FF928E"/>
</linearGradient>
<linearGradient id="paint16_linear_56_165" x1="255.329" y1="95.5988" x2="233.655" y2="138.394" gradientUnits="userSpaceOnUse">
<stop stop-color="#09005D"/>
<stop offset="1" stop-color="#1A0F91"/>
</linearGradient>
<linearGradient id="paint17_linear_56_165" x1="290.01" y1="113.165" x2="268.336" y2="155.959" gradientUnits="userSpaceOnUse">
<stop stop-color="#09005D"/>
<stop offset="1" stop-color="#1A0F91"/>
</linearGradient>
<linearGradient id="paint18_linear_56_165" x1="229.317" y1="179.503" x2="223.614" y2="162.369" gradientUnits="userSpaceOnUse">
<stop stop-color="#FEBBBA"/>
<stop offset="1" stop-color="#FF928E"/>
</linearGradient>
<linearGradient id="paint19_linear_56_165" x1="215.963" y1="158.481" x2="236.504" y2="167.425" gradientUnits="userSpaceOnUse">
<stop stop-color="#FEBBBA"/>
<stop offset="1" stop-color="#FF928E"/>
</linearGradient>
<linearGradient id="paint20_linear_56_165" x1="226.576" y1="173.002" x2="209.661" y2="155.083" gradientUnits="userSpaceOnUse">
<stop stop-color="#09005D"/>
<stop offset="1" stop-color="#1A0F91"/>
</linearGradient>
<linearGradient id="paint21_linear_56_165" x1="214.683" y1="161.422" x2="235.223" y2="170.366" gradientUnits="userSpaceOnUse">
<stop stop-color="#FEBBBA"/>
<stop offset="1" stop-color="#FF928E"/>
</linearGradient>
<linearGradient id="paint22_linear_56_165" x1="254.988" y1="378.014" x2="229.448" y2="378.014" gradientUnits="userSpaceOnUse">
<stop stop-color="#4042E2"/>
<stop offset="1" stop-color="#4F52FF"/>
</linearGradient>
<linearGradient id="paint23_linear_56_165" x1="316.63" y1="354.15" x2="224.174" y2="380.538" gradientUnits="userSpaceOnUse">
<stop stop-color="#09005D"/>
<stop offset="1" stop-color="#1A0F91"/>
</linearGradient>
<linearGradient id="paint24_linear_56_165" x1="252.63" y1="366.036" x2="245.436" y2="366.036" gradientUnits="userSpaceOnUse">
<stop stop-color="#FEBBBA"/>
<stop offset="1" stop-color="#FF928E"/>
</linearGradient>
<linearGradient id="paint25_linear_56_165" x1="305.902" y1="377.464" x2="296.115" y2="377.464" gradientUnits="userSpaceOnUse">
<stop stop-color="#4042E2"/>
<stop offset="1" stop-color="#4F52FF"/>
</linearGradient>
<linearGradient id="paint26_linear_56_165" x1="265.077" y1="348.8" x2="322.662" y2="386.347" gradientUnits="userSpaceOnUse">
<stop stop-color="#09005D"/>
<stop offset="1" stop-color="#1A0F91"/>
</linearGradient>
<linearGradient id="paint27_linear_56_165" x1="298.365" y1="360.046" x2="289.766" y2="360.046" gradientUnits="userSpaceOnUse">
<stop stop-color="#FEBBBA"/>
<stop offset="1" stop-color="#FF928E"/>
</linearGradient>
<linearGradient id="paint28_linear_56_165" x1="299.576" y1="372.653" x2="168.614" y2="191.354" gradientUnits="userSpaceOnUse">
<stop stop-color="#09005D"/>
<stop offset="1" stop-color="#1A0F91"/>
</linearGradient>
<linearGradient id="paint29_linear_56_165" x1="268.03" y1="349.072" x2="257.904" y2="276.197" gradientUnits="userSpaceOnUse">
<stop stop-color="#FF928E"/>
<stop offset="1" stop-color="#FE7062"/>
</linearGradient>
<linearGradient id="paint30_linear_56_165" x1="243.882" y1="262.71" x2="242.442" y2="254.237" gradientUnits="userSpaceOnUse">
<stop stop-color="#E1473D"/>
<stop offset="1" stop-color="#E9605A"/>
</linearGradient>
<linearGradient id="paint31_linear_56_165" x1="241.798" y1="249.979" x2="246.674" y2="274.166" gradientUnits="userSpaceOnUse">
<stop stop-color="#E1473D"/>
<stop offset="1" stop-color="#E9605A"/>
</linearGradient>
<linearGradient id="paint32_linear_56_165" x1="267.516" y1="258.694" x2="266.074" y2="250.22" gradientUnits="userSpaceOnUse">
<stop stop-color="#E1473D"/>
<stop offset="1" stop-color="#E9605A"/>
</linearGradient>
<linearGradient id="paint33_linear_56_165" x1="265.275" y1="245.248" x2="270.151" y2="269.433" gradientUnits="userSpaceOnUse">
<stop stop-color="#E1473D"/>
<stop offset="1" stop-color="#E9605A"/>
</linearGradient>
<linearGradient id="paint34_linear_56_165" x1="253.99" y1="234.611" x2="253.847" y2="252.296" gradientUnits="userSpaceOnUse">
<stop stop-color="#E1473D"/>
<stop offset="1" stop-color="#E9605A"/>
</linearGradient>
<linearGradient id="paint35_linear_56_165" x1="243.756" y1="246.912" x2="235.67" y2="200.929" gradientUnits="userSpaceOnUse">
<stop stop-color="#FEBBBA"/>
<stop offset="1" stop-color="#FF928E"/>
</linearGradient>
<linearGradient id="paint36_linear_56_165" x1="256.441" y1="248.058" x2="258.139" y2="330.293" gradientUnits="userSpaceOnUse">
<stop stop-color="#FF928E"/>
<stop offset="1" stop-color="#FE7062"/>
</linearGradient>
<linearGradient id="paint37_linear_56_165" x1="258.356" y1="257.988" x2="258.407" y2="285.556" gradientUnits="userSpaceOnUse">
<stop stop-color="#E1473D"/>
<stop offset="1" stop-color="#E9605A"/>
</linearGradient>
<linearGradient id="paint38_linear_56_165" x1="253.739" y1="280.214" x2="263.707" y2="278.936" gradientUnits="userSpaceOnUse">
<stop stop-color="#FF928E"/>
<stop offset="1" stop-color="#FE7062"/>
</linearGradient>
<linearGradient id="paint39_linear_56_165" x1="264.559" y1="229.259" x2="245.131" y2="266.67" gradientUnits="userSpaceOnUse">
<stop stop-color="#FEBBBA"/>
<stop offset="1" stop-color="#FF928E"/>
</linearGradient>
<linearGradient id="paint40_linear_56_165" x1="303.764" y1="120.131" x2="282.09" y2="162.924" gradientUnits="userSpaceOnUse">
<stop stop-color="#09005D"/>
<stop offset="1" stop-color="#1A0F91"/>
</linearGradient>
<linearGradient id="paint41_linear_56_165" x1="310.722" y1="141.967" x2="187.591" y2="281.414" gradientUnits="userSpaceOnUse">
<stop stop-color="#4042E2"/>
<stop offset="1" stop-color="#4F52FF"/>
</linearGradient>
<linearGradient id="paint42_linear_56_165" x1="82.0007" y1="371.305" x2="98.7548" y2="371.305" gradientUnits="userSpaceOnUse">
<stop stop-color="#09005D"/>
<stop offset="1" stop-color="#1A0F91"/>
</linearGradient>
<linearGradient id="paint43_linear_56_165" x1="123.943" y1="351.565" x2="63.0531" y2="399.44" gradientUnits="userSpaceOnUse">
<stop stop-color="#4042E2"/>
<stop offset="1" stop-color="#4F52FF"/>
</linearGradient>
<linearGradient id="paint44_linear_56_165" x1="86.6602" y1="352.256" x2="83.467" y2="380.15" gradientUnits="userSpaceOnUse">
<stop stop-color="#A22B25"/>
<stop offset="1" stop-color="#C0423C"/>
</linearGradient>
<linearGradient id="paint45_linear_56_165" x1="134.771" y1="365.318" x2="73.8808" y2="413.191" gradientUnits="userSpaceOnUse">
<stop stop-color="#4042E2"/>
<stop offset="1" stop-color="#4F52FF"/>
</linearGradient>
<linearGradient id="paint46_linear_56_165" x1="107.513" y1="371.73" x2="131.63" y2="371.73" gradientUnits="userSpaceOnUse">
<stop stop-color="#09005D"/>
<stop offset="1" stop-color="#1A0F91"/>
</linearGradient>
<linearGradient id="paint47_linear_56_165" x1="112.315" y1="355.211" x2="110.882" y2="383.25" gradientUnits="userSpaceOnUse">
<stop stop-color="#A22B25"/>
<stop offset="1" stop-color="#C0423C"/>
</linearGradient>
<linearGradient id="paint48_linear_56_165" x1="85.7769" y1="384.153" x2="109.409" y2="210.978" gradientUnits="userSpaceOnUse">
<stop stop-color="#4F52FF"/>
<stop offset="1" stop-color="#4042E2"/>
</linearGradient>
<linearGradient id="paint49_linear_56_165" x1="424.625" y1="-212.309" x2="338.179" y2="-96.9408" gradientUnits="userSpaceOnUse">
<stop stop-color="#FF928E"/>
<stop offset="1" stop-color="#FE7062"/>
</linearGradient>
<linearGradient id="paint50_linear_56_165" x1="96.3664" y1="193.642" x2="113.561" y2="154.905" gradientUnits="userSpaceOnUse">
<stop stop-color="#A22B25"/>
<stop offset="1" stop-color="#C0423C"/>
</linearGradient>
<linearGradient id="paint51_linear_56_165" x1="90.6623" y1="133.021" x2="115.09" y2="170.323" gradientUnits="userSpaceOnUse">
<stop stop-color="#A22B25"/>
<stop offset="1" stop-color="#C0423C"/>
</linearGradient>
<linearGradient id="paint52_linear_56_165" x1="92.9542" y1="139.54" x2="111.302" y2="161.059" gradientUnits="userSpaceOnUse">
<stop stop-color="#09005D"/>
<stop offset="1" stop-color="#1A0F91"/>
</linearGradient>
<linearGradient id="paint53_linear_56_165" x1="84.2636" y1="137.212" x2="108.692" y2="174.514" gradientUnits="userSpaceOnUse">
<stop stop-color="#A22B25"/>
<stop offset="1" stop-color="#C0423C"/>
</linearGradient>
<linearGradient id="paint54_linear_56_165" x1="229.205" y1="86.0168" x2="128.083" y2="188.801" gradientUnits="userSpaceOnUse">
<stop stop-color="#FF928E"/>
<stop offset="1" stop-color="#FE7062"/>
</linearGradient>
<linearGradient id="paint55_linear_56_165" x1="168.125" y1="186.131" x2="121.393" y2="209.409" gradientUnits="userSpaceOnUse">
<stop stop-color="#A22B25"/>
<stop offset="1" stop-color="#C0423C"/>
</linearGradient>
<linearGradient id="paint56_linear_56_165" x1="167.44" y1="180.305" x2="151.469" y2="197.009" gradientUnits="userSpaceOnUse">
<stop stop-color="#A22B25"/>
<stop offset="1" stop-color="#C0423C"/>
</linearGradient>
<linearGradient id="paint57_linear_56_165" x1="168.347" y1="185.856" x2="121.615" y2="209.133" gradientUnits="userSpaceOnUse">
<stop stop-color="#A22B25"/>
<stop offset="1" stop-color="#C0423C"/>
</linearGradient>
<linearGradient id="paint58_linear_56_165" x1="187.886" y1="225.269" x2="52.2056" y2="200.701" gradientUnits="userSpaceOnUse">
<stop stop-color="#A22B25"/>
<stop offset="1" stop-color="#C0423C"/>
</linearGradient>
<linearGradient id="paint59_linear_56_165" x1="139.713" y1="122.012" x2="17.4524" y2="353.1" gradientUnits="userSpaceOnUse">
<stop stop-color="#E1473D"/>
<stop offset="1" stop-color="#E9605A"/>
</linearGradient>
<linearGradient id="paint60_linear_56_165" x1="140.14" y1="122.239" x2="17.8797" y2="353.328" gradientUnits="userSpaceOnUse">
<stop stop-color="#E1473D"/>
<stop offset="1" stop-color="#E9605A"/>
</linearGradient>
<clipPath id="clip0_56_165">
<rect width="380" height="379.248" fill="white"/>
</clipPath>
</defs>
</svg>
